G04 #@! TF.GenerationSoftware,KiCad,Pcbnew,(5.1.6)-1*
G04 #@! TF.CreationDate,2020-08-01T01:33:13+02:00*
G04 #@! TF.ProjectId,rascsi_din,72617363-7369-45f6-9469-6e2e6b696361,rev?*
G04 #@! TF.SameCoordinates,Original*
G04 #@! TF.FileFunction,Legend,Bot*
G04 #@! TF.FilePolarity,Positive*
%FSLAX46Y46*%
G04 Gerber Fmt 4.6, Leading zero omitted, Abs format (unit mm)*
G04 Created by KiCad (PCBNEW (5.1.6)-1) date 2020-08-01 01:33:13*
%MOMM*%
%LPD*%
G01*
G04 APERTURE LIST*
%ADD10C,0.120000*%
%ADD11C,0.152400*%
%ADD12C,0.150000*%
G04 APERTURE END LIST*
D10*
X184150000Y-48600000D02*
X232470000Y-48600000D01*
X232470000Y-48600000D02*
X232470000Y-43400000D01*
X232470000Y-43400000D02*
X181550000Y-43400000D01*
X181550000Y-43400000D02*
X181550000Y-46000000D01*
X181550000Y-46000000D02*
X184150000Y-46000000D01*
X184150000Y-46000000D02*
X184150000Y-48600000D01*
X182880000Y-48600000D02*
X181550000Y-48600000D01*
X181550000Y-48600000D02*
X181550000Y-47330000D01*
D11*
X182323619Y-108398095D02*
X182323619Y-107914285D01*
X182807428Y-107865904D01*
X182759047Y-107914285D01*
X182710666Y-108011047D01*
X182710666Y-108252952D01*
X182759047Y-108349714D01*
X182807428Y-108398095D01*
X182904190Y-108446476D01*
X183146095Y-108446476D01*
X183242857Y-108398095D01*
X183291238Y-108349714D01*
X183339619Y-108252952D01*
X183339619Y-108011047D01*
X183291238Y-107914285D01*
X183242857Y-107865904D01*
X182323619Y-109075428D02*
X182323619Y-109172190D01*
X182372000Y-109268952D01*
X182420380Y-109317333D01*
X182517142Y-109365714D01*
X182710666Y-109414095D01*
X182952571Y-109414095D01*
X183146095Y-109365714D01*
X183242857Y-109317333D01*
X183291238Y-109268952D01*
X183339619Y-109172190D01*
X183339619Y-109075428D01*
X183291238Y-108978666D01*
X183242857Y-108930285D01*
X183146095Y-108881904D01*
X182952571Y-108833523D01*
X182710666Y-108833523D01*
X182517142Y-108881904D01*
X182420380Y-108930285D01*
X182372000Y-108978666D01*
X182323619Y-109075428D01*
X234260380Y-107865904D02*
X234212000Y-107914285D01*
X234163619Y-108011047D01*
X234163619Y-108252952D01*
X234212000Y-108349714D01*
X234260380Y-108398095D01*
X234357142Y-108446476D01*
X234453904Y-108446476D01*
X234599047Y-108398095D01*
X235179619Y-107817523D01*
X235179619Y-108446476D01*
X234163619Y-109317333D02*
X234163619Y-109123809D01*
X234212000Y-109027047D01*
X234260380Y-108978666D01*
X234405523Y-108881904D01*
X234599047Y-108833523D01*
X234986095Y-108833523D01*
X235082857Y-108881904D01*
X235131238Y-108930285D01*
X235179619Y-109027047D01*
X235179619Y-109220571D01*
X235131238Y-109317333D01*
X235082857Y-109365714D01*
X234986095Y-109414095D01*
X234744190Y-109414095D01*
X234647428Y-109365714D01*
X234599047Y-109317333D01*
X234550666Y-109220571D01*
X234550666Y-109027047D01*
X234599047Y-108930285D01*
X234647428Y-108881904D01*
X234744190Y-108833523D01*
D12*
X233378333Y-49617380D02*
X233378333Y-50331666D01*
X233425952Y-50474523D01*
X233521190Y-50569761D01*
X233664047Y-50617380D01*
X233759285Y-50617380D01*
X232378333Y-50617380D02*
X232949761Y-50617380D01*
X232664047Y-50617380D02*
X232664047Y-49617380D01*
X232759285Y-49760238D01*
X232854523Y-49855476D01*
X232949761Y-49903095D01*
M02*
