G04 #@! TF.GenerationSoftware,KiCad,Pcbnew,(5.1.6)-1*
G04 #@! TF.CreationDate,2020-08-01T01:33:13+02:00*
G04 #@! TF.ProjectId,rascsi_din,72617363-7369-45f6-9469-6e2e6b696361,rev?*
G04 #@! TF.SameCoordinates,Original*
G04 #@! TF.FileFunction,Soldermask,Bot*
G04 #@! TF.FilePolarity,Negative*
%FSLAX46Y46*%
G04 Gerber Fmt 4.6, Leading zero omitted, Abs format (unit mm)*
G04 Created by KiCad (PCBNEW (5.1.6)-1) date 2020-08-01 01:33:13*
%MOMM*%
%LPD*%
G01*
G04 APERTURE LIST*
%ADD10C,1.776400*%
%ADD11R,1.776400X1.776400*%
%ADD12C,6.500000*%
%ADD13C,1.700000*%
%ADD14R,2.300000X2.300000*%
%ADD15O,2.300000X2.300000*%
%ADD16C,1.500000*%
%ADD17O,1.500000X1.500000*%
%ADD18R,1.700000X1.700000*%
%ADD19O,1.700000X1.700000*%
%ADD20R,1.800000X1.800000*%
%ADD21C,1.800000*%
%ADD22C,1.422400*%
%ADD23O,1.800000X1.800000*%
%ADD24C,5.500000*%
%ADD25C,0.900000*%
%ADD26R,1.900000X1.900000*%
%ADD27C,1.900000*%
G04 APERTURE END LIST*
D10*
X234720000Y-105255000D03*
X232560000Y-105255000D03*
X230400000Y-105255000D03*
X228240000Y-105255000D03*
X226080000Y-105255000D03*
X223920000Y-105255000D03*
X221760000Y-105255000D03*
X219600000Y-105255000D03*
X217440000Y-105255000D03*
X215280000Y-105255000D03*
X213120000Y-105255000D03*
X210960000Y-105255000D03*
X208800000Y-105255000D03*
X206640000Y-105255000D03*
X204480000Y-105255000D03*
X202320000Y-105255000D03*
X200160000Y-105255000D03*
X198000000Y-105255000D03*
X195840000Y-105255000D03*
X193680000Y-105255000D03*
X191520000Y-105255000D03*
X189360000Y-105255000D03*
X187200000Y-105255000D03*
X185040000Y-105255000D03*
X182880000Y-105255000D03*
D11*
X234720000Y-100965000D03*
D10*
X232560000Y-100965000D03*
X230400000Y-100965000D03*
X228240000Y-100965000D03*
X226080000Y-100965000D03*
X223920000Y-100965000D03*
X221760000Y-100965000D03*
X219600000Y-100965000D03*
X217440000Y-100965000D03*
X215280000Y-100965000D03*
X213120000Y-100965000D03*
X210960000Y-100965000D03*
X208800000Y-100965000D03*
X206640000Y-100965000D03*
X204480000Y-100965000D03*
X202320000Y-100965000D03*
X200160000Y-100965000D03*
X198000000Y-100965000D03*
X195840000Y-100965000D03*
X193680000Y-100965000D03*
X191520000Y-100965000D03*
X189360000Y-100965000D03*
X187200000Y-100965000D03*
X185040000Y-100965000D03*
X182880000Y-100965000D03*
D12*
X171375000Y-103110000D03*
X246225000Y-103110000D03*
D13*
X208280000Y-62230000D03*
X208280000Y-64730000D03*
X205740000Y-57190000D03*
X205740000Y-59690000D03*
X205740000Y-64730000D03*
X205740000Y-62230000D03*
X208280000Y-57190000D03*
X208280000Y-59690000D03*
D14*
X198120000Y-95250000D03*
D15*
X187960000Y-95250000D03*
D16*
X222250000Y-50800000D03*
D17*
X229870000Y-50800000D03*
D18*
X208280000Y-77470000D03*
D19*
X210820000Y-77470000D03*
X213360000Y-77470000D03*
X215900000Y-77470000D03*
X218440000Y-77470000D03*
X220980000Y-77470000D03*
X223520000Y-77470000D03*
X226060000Y-77470000D03*
X228600000Y-77470000D03*
X231140000Y-77470000D03*
D18*
X200660000Y-77470000D03*
D19*
X198120000Y-77470000D03*
X195580000Y-77470000D03*
X193040000Y-77470000D03*
X190500000Y-77470000D03*
X187960000Y-77470000D03*
X185420000Y-77470000D03*
X182880000Y-77470000D03*
X180340000Y-77470000D03*
X177800000Y-77470000D03*
D18*
X205740000Y-54610000D03*
D19*
X203200000Y-54610000D03*
X200660000Y-54610000D03*
X198120000Y-54610000D03*
X195580000Y-54610000D03*
X193040000Y-54610000D03*
X190500000Y-54610000D03*
X187960000Y-54610000D03*
X185420000Y-54610000D03*
X182880000Y-54610000D03*
D18*
X210820000Y-64770000D03*
D19*
X233680000Y-57150000D03*
X213360000Y-64770000D03*
X231140000Y-57150000D03*
X215900000Y-64770000D03*
X228600000Y-57150000D03*
X218440000Y-64770000D03*
X226060000Y-57150000D03*
X220980000Y-64770000D03*
X223520000Y-57150000D03*
X223520000Y-64770000D03*
X220980000Y-57150000D03*
X226060000Y-64770000D03*
X218440000Y-57150000D03*
X228600000Y-64770000D03*
X215900000Y-57150000D03*
X231140000Y-64770000D03*
X213360000Y-57150000D03*
X233680000Y-64770000D03*
X210820000Y-57150000D03*
D20*
X233680000Y-85725000D03*
D21*
X233680000Y-88265000D03*
X231140000Y-85725000D03*
X231140000Y-88265000D03*
X228600000Y-85725000D03*
X228600000Y-88265000D03*
X226060000Y-85725000D03*
X226060000Y-88265000D03*
X223520000Y-85725000D03*
X223520000Y-88265000D03*
X220980000Y-85725000D03*
X220980000Y-88265000D03*
X218440000Y-85725000D03*
X218440000Y-88265000D03*
X215900000Y-85725000D03*
X215900000Y-88265000D03*
X213360000Y-85725000D03*
X213360000Y-88265000D03*
X210820000Y-85725000D03*
X210820000Y-88265000D03*
X208280000Y-85725000D03*
X208280000Y-88265000D03*
X205740000Y-85725000D03*
X205740000Y-88265000D03*
X203200000Y-85725000D03*
X203200000Y-88265000D03*
X200660000Y-85725000D03*
X200660000Y-88265000D03*
X198120000Y-85725000D03*
X198120000Y-88265000D03*
X195580000Y-85725000D03*
X195580000Y-88265000D03*
X193040000Y-85725000D03*
X193040000Y-88265000D03*
X190500000Y-85725000D03*
X190500000Y-88265000D03*
X187960000Y-85725000D03*
X187960000Y-88265000D03*
X185420000Y-85725000D03*
X185420000Y-88265000D03*
X182880000Y-85725000D03*
X182880000Y-88265000D03*
X180340000Y-85725000D03*
X180340000Y-88265000D03*
X177800000Y-85725000D03*
X177800000Y-88265000D03*
X175260000Y-85725000D03*
X175260000Y-88265000D03*
X172720000Y-85725000D03*
X172720000Y-88265000D03*
D22*
X200660000Y-95250000D03*
X208280000Y-95250000D03*
D16*
X214630000Y-50800000D03*
D17*
X207010000Y-50800000D03*
D20*
X172085000Y-65405000D03*
D23*
X172085000Y-67945000D03*
X172085000Y-70485000D03*
X172085000Y-73025000D03*
D18*
X198120000Y-80010000D03*
D19*
X195580000Y-80010000D03*
X193040000Y-80010000D03*
X190500000Y-80010000D03*
X187960000Y-80010000D03*
X185420000Y-80010000D03*
X182880000Y-80010000D03*
X180340000Y-80010000D03*
X177800000Y-80010000D03*
X175260000Y-80010000D03*
D20*
X182880000Y-47270000D03*
D23*
X182880000Y-44730000D03*
X185420000Y-47270000D03*
X185420000Y-44730000D03*
X187960000Y-47270000D03*
X187960000Y-44730000D03*
X190500000Y-47270000D03*
X190500000Y-44730000D03*
X193040000Y-47270000D03*
X193040000Y-44730000D03*
X195580000Y-47270000D03*
X195580000Y-44730000D03*
X198120000Y-47270000D03*
X198120000Y-44730000D03*
X200660000Y-47270000D03*
X200660000Y-44730000D03*
X203200000Y-47270000D03*
X203200000Y-44730000D03*
X205740000Y-47270000D03*
X205740000Y-44730000D03*
X208280000Y-47270000D03*
X208280000Y-44730000D03*
X210820000Y-47270000D03*
X210820000Y-44730000D03*
X213360000Y-47270000D03*
X213360000Y-44730000D03*
X215900000Y-47270000D03*
X215900000Y-44730000D03*
X218440000Y-47270000D03*
X218440000Y-44730000D03*
X220980000Y-47270000D03*
X220980000Y-44730000D03*
X223520000Y-47270000D03*
X223520000Y-44730000D03*
X226060000Y-47270000D03*
X226060000Y-44730000D03*
X228600000Y-47270000D03*
X228600000Y-44730000D03*
X231140000Y-47270000D03*
X231140000Y-44730000D03*
D18*
X208280000Y-74930000D03*
D19*
X231140000Y-67310000D03*
X210820000Y-74930000D03*
X228600000Y-67310000D03*
X213360000Y-74930000D03*
X226060000Y-67310000D03*
X215900000Y-74930000D03*
X223520000Y-67310000D03*
X218440000Y-74930000D03*
X220980000Y-67310000D03*
X220980000Y-74930000D03*
X218440000Y-67310000D03*
X223520000Y-74930000D03*
X215900000Y-67310000D03*
X226060000Y-74930000D03*
X213360000Y-67310000D03*
X228600000Y-74930000D03*
X210820000Y-67310000D03*
X231140000Y-74930000D03*
X208280000Y-67310000D03*
D18*
X205740000Y-67310000D03*
D19*
X182880000Y-74930000D03*
X203200000Y-67310000D03*
X185420000Y-74930000D03*
X200660000Y-67310000D03*
X187960000Y-74930000D03*
X198120000Y-67310000D03*
X190500000Y-74930000D03*
X195580000Y-67310000D03*
X193040000Y-74930000D03*
X193040000Y-67310000D03*
X195580000Y-74930000D03*
X190500000Y-67310000D03*
X198120000Y-74930000D03*
X187960000Y-67310000D03*
X200660000Y-74930000D03*
X185420000Y-67310000D03*
X203200000Y-74930000D03*
X182880000Y-67310000D03*
X205740000Y-74930000D03*
D18*
X203200000Y-57150000D03*
D19*
X180340000Y-64770000D03*
X200660000Y-57150000D03*
X182880000Y-64770000D03*
X198120000Y-57150000D03*
X185420000Y-64770000D03*
X195580000Y-57150000D03*
X187960000Y-64770000D03*
X193040000Y-57150000D03*
X190500000Y-64770000D03*
X190500000Y-57150000D03*
X193040000Y-64770000D03*
X187960000Y-57150000D03*
X195580000Y-64770000D03*
X185420000Y-57150000D03*
X198120000Y-64770000D03*
X182880000Y-57150000D03*
X200660000Y-64770000D03*
X180340000Y-57150000D03*
X203200000Y-64770000D03*
D18*
X210820000Y-80010000D03*
D19*
X213360000Y-80010000D03*
X215900000Y-80010000D03*
X218440000Y-80010000D03*
X220980000Y-80010000D03*
X223520000Y-80010000D03*
X226060000Y-80010000D03*
X228600000Y-80010000D03*
X231140000Y-80010000D03*
X233680000Y-80010000D03*
D18*
X208280000Y-54610000D03*
D19*
X210820000Y-54610000D03*
X213360000Y-54610000D03*
X215900000Y-54610000D03*
X218440000Y-54610000D03*
X220980000Y-54610000D03*
X223520000Y-54610000D03*
X226060000Y-54610000D03*
X228600000Y-54610000D03*
X231140000Y-54610000D03*
D20*
X203200000Y-80010000D03*
D23*
X203200000Y-77470000D03*
D20*
X205740000Y-80010000D03*
D23*
X205740000Y-77470000D03*
D20*
X172085000Y-55245000D03*
D23*
X172085000Y-52705000D03*
X172085000Y-50165000D03*
X172085000Y-47625000D03*
X172085000Y-45085000D03*
D24*
X236000000Y-95000000D03*
D25*
X238025000Y-95000000D03*
X237431891Y-96431891D03*
X236000000Y-97025000D03*
X234568109Y-96431891D03*
X233975000Y-95000000D03*
X234568109Y-93568109D03*
X236000000Y-92975000D03*
X237431891Y-93568109D03*
D24*
X178000000Y-95000000D03*
D25*
X180025000Y-95000000D03*
X179431891Y-96431891D03*
X178000000Y-97025000D03*
X176568109Y-96431891D03*
X175975000Y-95000000D03*
X176568109Y-93568109D03*
X178000000Y-92975000D03*
X179431891Y-93568109D03*
D24*
X236000000Y-69000000D03*
D25*
X238025000Y-69000000D03*
X237431891Y-70431891D03*
X236000000Y-71025000D03*
X234568109Y-70431891D03*
X233975000Y-69000000D03*
X234568109Y-67568109D03*
X236000000Y-66975000D03*
X237431891Y-67568109D03*
D24*
X178000000Y-69000000D03*
D25*
X180025000Y-69000000D03*
X179431891Y-70431891D03*
X178000000Y-71025000D03*
X176568109Y-70431891D03*
X175975000Y-69000000D03*
X176568109Y-67568109D03*
X178000000Y-66975000D03*
X179431891Y-67568109D03*
D24*
X236000000Y-46000000D03*
D25*
X238025000Y-46000000D03*
X237431891Y-47431891D03*
X236000000Y-48025000D03*
X234568109Y-47431891D03*
X233975000Y-46000000D03*
X234568109Y-44568109D03*
X236000000Y-43975000D03*
X237431891Y-44568109D03*
D24*
X178000000Y-46000000D03*
D25*
X180025000Y-46000000D03*
X179431891Y-47431891D03*
X178000000Y-48025000D03*
X176568109Y-47431891D03*
X175975000Y-46000000D03*
X176568109Y-44568109D03*
X178000000Y-43975000D03*
X179431891Y-44568109D03*
D26*
X176530000Y-52705000D03*
D27*
X179070000Y-52705000D03*
D26*
X237490000Y-52705000D03*
D27*
X234950000Y-52705000D03*
D20*
X236855000Y-58420000D03*
D23*
X236855000Y-60960000D03*
M02*
