G04 #@! TF.GenerationSoftware,KiCad,Pcbnew,(5.1.6)-1*
G04 #@! TF.CreationDate,2020-08-01T01:33:13+02:00*
G04 #@! TF.ProjectId,rascsi_din,72617363-7369-45f6-9469-6e2e6b696361,rev?*
G04 #@! TF.SameCoordinates,Original*
G04 #@! TF.FileFunction,Legend,Top*
G04 #@! TF.FilePolarity,Positive*
%FSLAX46Y46*%
G04 Gerber Fmt 4.6, Leading zero omitted, Abs format (unit mm)*
G04 Created by KiCad (PCBNEW (5.1.6)-1) date 2020-08-01 01:33:13*
%MOMM*%
%LPD*%
G01*
G04 APERTURE LIST*
%ADD10C,0.150000*%
%ADD11C,0.120000*%
%ADD12C,0.300000*%
%ADD13C,0.250000*%
%ADD14C,0.127000*%
%ADD15C,0.100000*%
%ADD16C,0.152400*%
G04 APERTURE END LIST*
D10*
X177927047Y-62301428D02*
X178688952Y-62301428D01*
X178498476Y-62491904D02*
X178688952Y-62301428D01*
X178498476Y-62110952D01*
X177927047Y-59761428D02*
X178688952Y-59761428D01*
X178498476Y-59951904D02*
X178688952Y-59761428D01*
X178498476Y-59570952D01*
X235116904Y-56621666D02*
X235593095Y-56621666D01*
X235021666Y-56907380D02*
X235355000Y-55907380D01*
X235688333Y-56907380D01*
X236593095Y-56812142D02*
X236545476Y-56859761D01*
X236402619Y-56907380D01*
X236307380Y-56907380D01*
X236164523Y-56859761D01*
X236069285Y-56764523D01*
X236021666Y-56669285D01*
X235974047Y-56478809D01*
X235974047Y-56335952D01*
X236021666Y-56145476D01*
X236069285Y-56050238D01*
X236164523Y-55955000D01*
X236307380Y-55907380D01*
X236402619Y-55907380D01*
X236545476Y-55955000D01*
X236593095Y-56002619D01*
X236878809Y-55907380D02*
X237450238Y-55907380D01*
X237164523Y-56907380D02*
X237164523Y-55907380D01*
X237783571Y-56526428D02*
X238545476Y-56526428D01*
X238164523Y-56907380D02*
X238164523Y-56145476D01*
X167671904Y-69937380D02*
X168290952Y-69937380D01*
X167957619Y-70318333D01*
X168100476Y-70318333D01*
X168195714Y-70365952D01*
X168243333Y-70413571D01*
X168290952Y-70508809D01*
X168290952Y-70746904D01*
X168243333Y-70842142D01*
X168195714Y-70889761D01*
X168100476Y-70937380D01*
X167814761Y-70937380D01*
X167719523Y-70889761D01*
X167671904Y-70842142D01*
X168576666Y-69937380D02*
X168910000Y-70937380D01*
X169243333Y-69937380D01*
X169481428Y-69937380D02*
X170100476Y-69937380D01*
X169767142Y-70318333D01*
X169910000Y-70318333D01*
X170005238Y-70365952D01*
X170052857Y-70413571D01*
X170100476Y-70508809D01*
X170100476Y-70746904D01*
X170052857Y-70842142D01*
X170005238Y-70889761D01*
X169910000Y-70937380D01*
X169624285Y-70937380D01*
X169529047Y-70889761D01*
X169481428Y-70842142D01*
X168148095Y-72525000D02*
X168052857Y-72477380D01*
X167910000Y-72477380D01*
X167767142Y-72525000D01*
X167671904Y-72620238D01*
X167624285Y-72715476D01*
X167576666Y-72905952D01*
X167576666Y-73048809D01*
X167624285Y-73239285D01*
X167671904Y-73334523D01*
X167767142Y-73429761D01*
X167910000Y-73477380D01*
X168005238Y-73477380D01*
X168148095Y-73429761D01*
X168195714Y-73382142D01*
X168195714Y-73048809D01*
X168005238Y-73048809D01*
X168624285Y-73477380D02*
X168624285Y-72477380D01*
X169195714Y-73477380D01*
X169195714Y-72477380D01*
X169671904Y-73477380D02*
X169671904Y-72477380D01*
X169910000Y-72477380D01*
X170052857Y-72525000D01*
X170148095Y-72620238D01*
X170195714Y-72715476D01*
X170243333Y-72905952D01*
X170243333Y-73048809D01*
X170195714Y-73239285D01*
X170148095Y-73334523D01*
X170052857Y-73429761D01*
X169910000Y-73477380D01*
X169671904Y-73477380D01*
X167695714Y-68349761D02*
X167838571Y-68397380D01*
X168076666Y-68397380D01*
X168171904Y-68349761D01*
X168219523Y-68302142D01*
X168267142Y-68206904D01*
X168267142Y-68111666D01*
X168219523Y-68016428D01*
X168171904Y-67968809D01*
X168076666Y-67921190D01*
X167886190Y-67873571D01*
X167790952Y-67825952D01*
X167743333Y-67778333D01*
X167695714Y-67683095D01*
X167695714Y-67587857D01*
X167743333Y-67492619D01*
X167790952Y-67445000D01*
X167886190Y-67397380D01*
X168124285Y-67397380D01*
X168267142Y-67445000D01*
X168695714Y-68397380D02*
X168695714Y-67397380D01*
X168933809Y-67397380D01*
X169076666Y-67445000D01*
X169171904Y-67540238D01*
X169219523Y-67635476D01*
X169267142Y-67825952D01*
X169267142Y-67968809D01*
X169219523Y-68159285D01*
X169171904Y-68254523D01*
X169076666Y-68349761D01*
X168933809Y-68397380D01*
X168695714Y-68397380D01*
X169648095Y-68111666D02*
X170124285Y-68111666D01*
X169552857Y-68397380D02*
X169886190Y-67397380D01*
X170219523Y-68397380D01*
X167719523Y-65809761D02*
X167862380Y-65857380D01*
X168100476Y-65857380D01*
X168195714Y-65809761D01*
X168243333Y-65762142D01*
X168290952Y-65666904D01*
X168290952Y-65571666D01*
X168243333Y-65476428D01*
X168195714Y-65428809D01*
X168100476Y-65381190D01*
X167910000Y-65333571D01*
X167814761Y-65285952D01*
X167767142Y-65238333D01*
X167719523Y-65143095D01*
X167719523Y-65047857D01*
X167767142Y-64952619D01*
X167814761Y-64905000D01*
X167910000Y-64857380D01*
X168148095Y-64857380D01*
X168290952Y-64905000D01*
X169290952Y-65762142D02*
X169243333Y-65809761D01*
X169100476Y-65857380D01*
X169005238Y-65857380D01*
X168862380Y-65809761D01*
X168767142Y-65714523D01*
X168719523Y-65619285D01*
X168671904Y-65428809D01*
X168671904Y-65285952D01*
X168719523Y-65095476D01*
X168767142Y-65000238D01*
X168862380Y-64905000D01*
X169005238Y-64857380D01*
X169100476Y-64857380D01*
X169243333Y-64905000D01*
X169290952Y-64952619D01*
X170195714Y-65857380D02*
X169719523Y-65857380D01*
X169719523Y-64857380D01*
X169362619Y-57237380D02*
X169553095Y-57237380D01*
X169648333Y-57285000D01*
X169743571Y-57380238D01*
X169791190Y-57570714D01*
X169791190Y-57904047D01*
X169743571Y-58094523D01*
X169648333Y-58189761D01*
X169553095Y-58237380D01*
X169362619Y-58237380D01*
X169267380Y-58189761D01*
X169172142Y-58094523D01*
X169124523Y-57904047D01*
X169124523Y-57570714D01*
X169172142Y-57380238D01*
X169267380Y-57285000D01*
X169362619Y-57237380D01*
X170695952Y-58237380D02*
X170219761Y-58237380D01*
X170219761Y-57237380D01*
X171029285Y-57713571D02*
X171362619Y-57713571D01*
X171505476Y-58237380D02*
X171029285Y-58237380D01*
X171029285Y-57237380D01*
X171505476Y-57237380D01*
X171934047Y-58237380D02*
X171934047Y-57237380D01*
X172172142Y-57237380D01*
X172315000Y-57285000D01*
X172410238Y-57380238D01*
X172457857Y-57475476D01*
X172505476Y-57665952D01*
X172505476Y-57808809D01*
X172457857Y-57999285D01*
X172410238Y-58094523D01*
X172315000Y-58189761D01*
X172172142Y-58237380D01*
X171934047Y-58237380D01*
X167624285Y-55316428D02*
X168386190Y-55316428D01*
X168005238Y-55697380D02*
X168005238Y-54935476D01*
X169338571Y-54697380D02*
X168862380Y-54697380D01*
X168814761Y-55173571D01*
X168862380Y-55125952D01*
X168957619Y-55078333D01*
X169195714Y-55078333D01*
X169290952Y-55125952D01*
X169338571Y-55173571D01*
X169386190Y-55268809D01*
X169386190Y-55506904D01*
X169338571Y-55602142D01*
X169290952Y-55649761D01*
X169195714Y-55697380D01*
X168957619Y-55697380D01*
X168862380Y-55649761D01*
X168814761Y-55602142D01*
X169671904Y-54697380D02*
X170005238Y-55697380D01*
X170338571Y-54697380D01*
X168148095Y-52205000D02*
X168052857Y-52157380D01*
X167910000Y-52157380D01*
X167767142Y-52205000D01*
X167671904Y-52300238D01*
X167624285Y-52395476D01*
X167576666Y-52585952D01*
X167576666Y-52728809D01*
X167624285Y-52919285D01*
X167671904Y-53014523D01*
X167767142Y-53109761D01*
X167910000Y-53157380D01*
X168005238Y-53157380D01*
X168148095Y-53109761D01*
X168195714Y-53062142D01*
X168195714Y-52728809D01*
X168005238Y-52728809D01*
X168624285Y-53157380D02*
X168624285Y-52157380D01*
X169195714Y-53157380D01*
X169195714Y-52157380D01*
X169671904Y-53157380D02*
X169671904Y-52157380D01*
X169910000Y-52157380D01*
X170052857Y-52205000D01*
X170148095Y-52300238D01*
X170195714Y-52395476D01*
X170243333Y-52585952D01*
X170243333Y-52728809D01*
X170195714Y-52919285D01*
X170148095Y-53014523D01*
X170052857Y-53109761D01*
X169910000Y-53157380D01*
X169671904Y-53157380D01*
X167671904Y-49617380D02*
X168290952Y-49617380D01*
X167957619Y-49998333D01*
X168100476Y-49998333D01*
X168195714Y-50045952D01*
X168243333Y-50093571D01*
X168290952Y-50188809D01*
X168290952Y-50426904D01*
X168243333Y-50522142D01*
X168195714Y-50569761D01*
X168100476Y-50617380D01*
X167814761Y-50617380D01*
X167719523Y-50569761D01*
X167671904Y-50522142D01*
X168576666Y-49617380D02*
X168910000Y-50617380D01*
X169243333Y-49617380D01*
X169481428Y-49617380D02*
X170100476Y-49617380D01*
X169767142Y-49998333D01*
X169910000Y-49998333D01*
X170005238Y-50045952D01*
X170052857Y-50093571D01*
X170100476Y-50188809D01*
X170100476Y-50426904D01*
X170052857Y-50522142D01*
X170005238Y-50569761D01*
X169910000Y-50617380D01*
X169624285Y-50617380D01*
X169529047Y-50569761D01*
X169481428Y-50522142D01*
X167719523Y-48029761D02*
X167862380Y-48077380D01*
X168100476Y-48077380D01*
X168195714Y-48029761D01*
X168243333Y-47982142D01*
X168290952Y-47886904D01*
X168290952Y-47791666D01*
X168243333Y-47696428D01*
X168195714Y-47648809D01*
X168100476Y-47601190D01*
X167910000Y-47553571D01*
X167814761Y-47505952D01*
X167767142Y-47458333D01*
X167719523Y-47363095D01*
X167719523Y-47267857D01*
X167767142Y-47172619D01*
X167814761Y-47125000D01*
X167910000Y-47077380D01*
X168148095Y-47077380D01*
X168290952Y-47125000D01*
X169290952Y-47982142D02*
X169243333Y-48029761D01*
X169100476Y-48077380D01*
X169005238Y-48077380D01*
X168862380Y-48029761D01*
X168767142Y-47934523D01*
X168719523Y-47839285D01*
X168671904Y-47648809D01*
X168671904Y-47505952D01*
X168719523Y-47315476D01*
X168767142Y-47220238D01*
X168862380Y-47125000D01*
X169005238Y-47077380D01*
X169100476Y-47077380D01*
X169243333Y-47125000D01*
X169290952Y-47172619D01*
X170195714Y-48077380D02*
X169719523Y-48077380D01*
X169719523Y-47077380D01*
X170243571Y-63317380D02*
X169910238Y-62841190D01*
X169672142Y-63317380D02*
X169672142Y-62317380D01*
X170053095Y-62317380D01*
X170148333Y-62365000D01*
X170195952Y-62412619D01*
X170243571Y-62507857D01*
X170243571Y-62650714D01*
X170195952Y-62745952D01*
X170148333Y-62793571D01*
X170053095Y-62841190D01*
X169672142Y-62841190D01*
X170529285Y-62317380D02*
X171100714Y-62317380D01*
X170815000Y-63317380D02*
X170815000Y-62317380D01*
X172005476Y-63222142D02*
X171957857Y-63269761D01*
X171815000Y-63317380D01*
X171719761Y-63317380D01*
X171576904Y-63269761D01*
X171481666Y-63174523D01*
X171434047Y-63079285D01*
X171386428Y-62888809D01*
X171386428Y-62745952D01*
X171434047Y-62555476D01*
X171481666Y-62460238D01*
X171576904Y-62365000D01*
X171719761Y-62317380D01*
X171815000Y-62317380D01*
X171957857Y-62365000D01*
X172005476Y-62412619D01*
X167695714Y-45489761D02*
X167838571Y-45537380D01*
X168076666Y-45537380D01*
X168171904Y-45489761D01*
X168219523Y-45442142D01*
X168267142Y-45346904D01*
X168267142Y-45251666D01*
X168219523Y-45156428D01*
X168171904Y-45108809D01*
X168076666Y-45061190D01*
X167886190Y-45013571D01*
X167790952Y-44965952D01*
X167743333Y-44918333D01*
X167695714Y-44823095D01*
X167695714Y-44727857D01*
X167743333Y-44632619D01*
X167790952Y-44585000D01*
X167886190Y-44537380D01*
X168124285Y-44537380D01*
X168267142Y-44585000D01*
X168695714Y-45537380D02*
X168695714Y-44537380D01*
X168933809Y-44537380D01*
X169076666Y-44585000D01*
X169171904Y-44680238D01*
X169219523Y-44775476D01*
X169267142Y-44965952D01*
X169267142Y-45108809D01*
X169219523Y-45299285D01*
X169171904Y-45394523D01*
X169076666Y-45489761D01*
X168933809Y-45537380D01*
X168695714Y-45537380D01*
X169648095Y-45251666D02*
X170124285Y-45251666D01*
X169552857Y-45537380D02*
X169886190Y-44537380D01*
X170219523Y-45537380D01*
D11*
X205740000Y-48895000D02*
X183515000Y-48895000D01*
X205740000Y-52705000D02*
X205740000Y-48895000D01*
X183515000Y-52705000D02*
X205740000Y-52705000D01*
X183515000Y-48895000D02*
X183515000Y-52705000D01*
D10*
X176538095Y-56967380D02*
X176538095Y-55967380D01*
X176776190Y-55967380D01*
X176919047Y-56015000D01*
X177014285Y-56110238D01*
X177061904Y-56205476D01*
X177109523Y-56395952D01*
X177109523Y-56538809D01*
X177061904Y-56729285D01*
X177014285Y-56824523D01*
X176919047Y-56919761D01*
X176776190Y-56967380D01*
X176538095Y-56967380D01*
X177871428Y-56443571D02*
X178014285Y-56491190D01*
X178061904Y-56538809D01*
X178109523Y-56634047D01*
X178109523Y-56776904D01*
X178061904Y-56872142D01*
X178014285Y-56919761D01*
X177919047Y-56967380D01*
X177538095Y-56967380D01*
X177538095Y-55967380D01*
X177871428Y-55967380D01*
X177966666Y-56015000D01*
X178014285Y-56062619D01*
X178061904Y-56157857D01*
X178061904Y-56253095D01*
X178014285Y-56348333D01*
X177966666Y-56395952D01*
X177871428Y-56443571D01*
X177538095Y-56443571D01*
X179061904Y-56015000D02*
X178966666Y-55967380D01*
X178823809Y-55967380D01*
X178680952Y-56015000D01*
X178585714Y-56110238D01*
X178538095Y-56205476D01*
X178490476Y-56395952D01*
X178490476Y-56538809D01*
X178538095Y-56729285D01*
X178585714Y-56824523D01*
X178680952Y-56919761D01*
X178823809Y-56967380D01*
X178919047Y-56967380D01*
X179061904Y-56919761D01*
X179109523Y-56872142D01*
X179109523Y-56538809D01*
X178919047Y-56538809D01*
X192359595Y-50427380D02*
X192359595Y-49427380D01*
X192740547Y-49427380D01*
X192835785Y-49475000D01*
X192883404Y-49522619D01*
X192931023Y-49617857D01*
X192931023Y-49760714D01*
X192883404Y-49855952D01*
X192835785Y-49903571D01*
X192740547Y-49951190D01*
X192359595Y-49951190D01*
X193502452Y-50427380D02*
X193407214Y-50379761D01*
X193359595Y-50332142D01*
X193311976Y-50236904D01*
X193311976Y-49951190D01*
X193359595Y-49855952D01*
X193407214Y-49808333D01*
X193502452Y-49760714D01*
X193645309Y-49760714D01*
X193740547Y-49808333D01*
X193788166Y-49855952D01*
X193835785Y-49951190D01*
X193835785Y-50236904D01*
X193788166Y-50332142D01*
X193740547Y-50379761D01*
X193645309Y-50427380D01*
X193502452Y-50427380D01*
X194169119Y-49760714D02*
X194359595Y-50427380D01*
X194550071Y-49951190D01*
X194740547Y-50427380D01*
X194931023Y-49760714D01*
X195692928Y-50379761D02*
X195597690Y-50427380D01*
X195407214Y-50427380D01*
X195311976Y-50379761D01*
X195264357Y-50284523D01*
X195264357Y-49903571D01*
X195311976Y-49808333D01*
X195407214Y-49760714D01*
X195597690Y-49760714D01*
X195692928Y-49808333D01*
X195740547Y-49903571D01*
X195740547Y-49998809D01*
X195264357Y-50094047D01*
X196169119Y-50427380D02*
X196169119Y-49760714D01*
X196169119Y-49951190D02*
X196216738Y-49855952D01*
X196264357Y-49808333D01*
X196359595Y-49760714D01*
X196454833Y-49760714D01*
X197169119Y-50379761D02*
X197073880Y-50427380D01*
X196883404Y-50427380D01*
X196788166Y-50379761D01*
X196740547Y-50284523D01*
X196740547Y-49903571D01*
X196788166Y-49808333D01*
X196883404Y-49760714D01*
X197073880Y-49760714D01*
X197169119Y-49808333D01*
X197216738Y-49903571D01*
X197216738Y-49998809D01*
X196740547Y-50094047D01*
X198073880Y-50427380D02*
X198073880Y-49427380D01*
X198073880Y-50379761D02*
X197978642Y-50427380D01*
X197788166Y-50427380D01*
X197692928Y-50379761D01*
X197645309Y-50332142D01*
X197597690Y-50236904D01*
X197597690Y-49951190D01*
X197645309Y-49855952D01*
X197692928Y-49808333D01*
X197788166Y-49760714D01*
X197978642Y-49760714D01*
X198073880Y-49808333D01*
X199311976Y-50427380D02*
X199311976Y-49427380D01*
X199311976Y-49808333D02*
X199407214Y-49760714D01*
X199597690Y-49760714D01*
X199692928Y-49808333D01*
X199740547Y-49855952D01*
X199788166Y-49951190D01*
X199788166Y-50236904D01*
X199740547Y-50332142D01*
X199692928Y-50379761D01*
X199597690Y-50427380D01*
X199407214Y-50427380D01*
X199311976Y-50379761D01*
X200121500Y-49760714D02*
X200359595Y-50427380D01*
X200597690Y-49760714D02*
X200359595Y-50427380D01*
X200264357Y-50665476D01*
X200216738Y-50713095D01*
X200121500Y-50760714D01*
X201645309Y-49427380D02*
X202311976Y-50427380D01*
X202311976Y-49427380D02*
X201645309Y-50427380D01*
X202692928Y-50427380D02*
X202692928Y-49427380D01*
X203026261Y-50141666D01*
X203359595Y-49427380D01*
X203359595Y-50427380D01*
X204264357Y-49427380D02*
X204073880Y-49427380D01*
X203978642Y-49475000D01*
X203931023Y-49522619D01*
X203835785Y-49665476D01*
X203788166Y-49855952D01*
X203788166Y-50236904D01*
X203835785Y-50332142D01*
X203883404Y-50379761D01*
X203978642Y-50427380D01*
X204169119Y-50427380D01*
X204264357Y-50379761D01*
X204311976Y-50332142D01*
X204359595Y-50236904D01*
X204359595Y-49998809D01*
X204311976Y-49903571D01*
X204264357Y-49855952D01*
X204169119Y-49808333D01*
X203978642Y-49808333D01*
X203883404Y-49855952D01*
X203835785Y-49903571D01*
X203788166Y-49998809D01*
X192216738Y-51077380D02*
X192788166Y-51077380D01*
X192502452Y-52077380D02*
X192502452Y-51077380D01*
X193026261Y-51410714D02*
X193264357Y-52077380D01*
X193502452Y-51410714D02*
X193264357Y-52077380D01*
X193169119Y-52315476D01*
X193121500Y-52363095D01*
X193026261Y-52410714D01*
X193883404Y-51410714D02*
X193883404Y-52410714D01*
X193883404Y-51458333D02*
X193978642Y-51410714D01*
X194169119Y-51410714D01*
X194264357Y-51458333D01*
X194311976Y-51505952D01*
X194359595Y-51601190D01*
X194359595Y-51886904D01*
X194311976Y-51982142D01*
X194264357Y-52029761D01*
X194169119Y-52077380D01*
X193978642Y-52077380D01*
X193883404Y-52029761D01*
X195169119Y-52029761D02*
X195073880Y-52077380D01*
X194883404Y-52077380D01*
X194788166Y-52029761D01*
X194740547Y-51934523D01*
X194740547Y-51553571D01*
X194788166Y-51458333D01*
X194883404Y-51410714D01*
X195073880Y-51410714D01*
X195169119Y-51458333D01*
X195216738Y-51553571D01*
X195216738Y-51648809D01*
X194740547Y-51744047D01*
X196169119Y-51125000D02*
X196073880Y-51077380D01*
X195931023Y-51077380D01*
X195788166Y-51125000D01*
X195692928Y-51220238D01*
X195645309Y-51315476D01*
X195597690Y-51505952D01*
X195597690Y-51648809D01*
X195645309Y-51839285D01*
X195692928Y-51934523D01*
X195788166Y-52029761D01*
X195931023Y-52077380D01*
X196026261Y-52077380D01*
X196169119Y-52029761D01*
X196216738Y-51982142D01*
X196216738Y-51648809D01*
X196026261Y-51648809D01*
X197264357Y-51077380D02*
X197835785Y-51077380D01*
X197550071Y-52077380D02*
X197550071Y-51077380D01*
X198550071Y-52029761D02*
X198454833Y-52077380D01*
X198264357Y-52077380D01*
X198169119Y-52029761D01*
X198121500Y-51934523D01*
X198121500Y-51553571D01*
X198169119Y-51458333D01*
X198264357Y-51410714D01*
X198454833Y-51410714D01*
X198550071Y-51458333D01*
X198597690Y-51553571D01*
X198597690Y-51648809D01*
X198121500Y-51744047D01*
X199454833Y-52029761D02*
X199359595Y-52077380D01*
X199169119Y-52077380D01*
X199073880Y-52029761D01*
X199026261Y-51982142D01*
X198978642Y-51886904D01*
X198978642Y-51601190D01*
X199026261Y-51505952D01*
X199073880Y-51458333D01*
X199169119Y-51410714D01*
X199359595Y-51410714D01*
X199454833Y-51458333D01*
X199883404Y-52077380D02*
X199883404Y-51077380D01*
X200311976Y-52077380D02*
X200311976Y-51553571D01*
X200264357Y-51458333D01*
X200169119Y-51410714D01*
X200026261Y-51410714D01*
X199931023Y-51458333D01*
X199883404Y-51505952D01*
X200788166Y-51410714D02*
X200788166Y-52077380D01*
X200788166Y-51505952D02*
X200835785Y-51458333D01*
X200931023Y-51410714D01*
X201073880Y-51410714D01*
X201169119Y-51458333D01*
X201216738Y-51553571D01*
X201216738Y-52077380D01*
X201835785Y-52077380D02*
X201740547Y-52029761D01*
X201692928Y-51982142D01*
X201645309Y-51886904D01*
X201645309Y-51601190D01*
X201692928Y-51505952D01*
X201740547Y-51458333D01*
X201835785Y-51410714D01*
X201978642Y-51410714D01*
X202073880Y-51458333D01*
X202121500Y-51505952D01*
X202169119Y-51601190D01*
X202169119Y-51886904D01*
X202121500Y-51982142D01*
X202073880Y-52029761D01*
X201978642Y-52077380D01*
X201835785Y-52077380D01*
X202740547Y-52077380D02*
X202645309Y-52029761D01*
X202597690Y-51934523D01*
X202597690Y-51077380D01*
X203264357Y-52077380D02*
X203169119Y-52029761D01*
X203121500Y-51982142D01*
X203073880Y-51886904D01*
X203073880Y-51601190D01*
X203121500Y-51505952D01*
X203169119Y-51458333D01*
X203264357Y-51410714D01*
X203407214Y-51410714D01*
X203502452Y-51458333D01*
X203550071Y-51505952D01*
X203597690Y-51601190D01*
X203597690Y-51886904D01*
X203550071Y-51982142D01*
X203502452Y-52029761D01*
X203407214Y-52077380D01*
X203264357Y-52077380D01*
X204454833Y-51410714D02*
X204454833Y-52220238D01*
X204407214Y-52315476D01*
X204359595Y-52363095D01*
X204264357Y-52410714D01*
X204121500Y-52410714D01*
X204026261Y-52363095D01*
X204454833Y-52029761D02*
X204359595Y-52077380D01*
X204169119Y-52077380D01*
X204073880Y-52029761D01*
X204026261Y-51982142D01*
X203978642Y-51886904D01*
X203978642Y-51601190D01*
X204026261Y-51505952D01*
X204073880Y-51458333D01*
X204169119Y-51410714D01*
X204359595Y-51410714D01*
X204454833Y-51458333D01*
X204835785Y-51410714D02*
X205073880Y-52077380D01*
X205311976Y-51410714D02*
X205073880Y-52077380D01*
X204978642Y-52315476D01*
X204931023Y-52363095D01*
X204835785Y-52410714D01*
D12*
X184956000Y-50843571D02*
X184456000Y-50129285D01*
X184098857Y-50843571D02*
X184098857Y-49343571D01*
X184670285Y-49343571D01*
X184813142Y-49415000D01*
X184884571Y-49486428D01*
X184956000Y-49629285D01*
X184956000Y-49843571D01*
X184884571Y-49986428D01*
X184813142Y-50057857D01*
X184670285Y-50129285D01*
X184098857Y-50129285D01*
X186241714Y-50843571D02*
X186241714Y-50057857D01*
X186170285Y-49915000D01*
X186027428Y-49843571D01*
X185741714Y-49843571D01*
X185598857Y-49915000D01*
X186241714Y-50772142D02*
X186098857Y-50843571D01*
X185741714Y-50843571D01*
X185598857Y-50772142D01*
X185527428Y-50629285D01*
X185527428Y-50486428D01*
X185598857Y-50343571D01*
X185741714Y-50272142D01*
X186098857Y-50272142D01*
X186241714Y-50200714D01*
X186884571Y-50772142D02*
X187098857Y-50843571D01*
X187456000Y-50843571D01*
X187598857Y-50772142D01*
X187670285Y-50700714D01*
X187741714Y-50557857D01*
X187741714Y-50415000D01*
X187670285Y-50272142D01*
X187598857Y-50200714D01*
X187456000Y-50129285D01*
X187170285Y-50057857D01*
X187027428Y-49986428D01*
X186956000Y-49915000D01*
X186884571Y-49772142D01*
X186884571Y-49629285D01*
X186956000Y-49486428D01*
X187027428Y-49415000D01*
X187170285Y-49343571D01*
X187527428Y-49343571D01*
X187741714Y-49415000D01*
X189241714Y-50700714D02*
X189170285Y-50772142D01*
X188956000Y-50843571D01*
X188813142Y-50843571D01*
X188598857Y-50772142D01*
X188456000Y-50629285D01*
X188384571Y-50486428D01*
X188313142Y-50200714D01*
X188313142Y-49986428D01*
X188384571Y-49700714D01*
X188456000Y-49557857D01*
X188598857Y-49415000D01*
X188813142Y-49343571D01*
X188956000Y-49343571D01*
X189170285Y-49415000D01*
X189241714Y-49486428D01*
X189813142Y-50772142D02*
X190027428Y-50843571D01*
X190384571Y-50843571D01*
X190527428Y-50772142D01*
X190598857Y-50700714D01*
X190670285Y-50557857D01*
X190670285Y-50415000D01*
X190598857Y-50272142D01*
X190527428Y-50200714D01*
X190384571Y-50129285D01*
X190098857Y-50057857D01*
X189956000Y-49986428D01*
X189884571Y-49915000D01*
X189813142Y-49772142D01*
X189813142Y-49629285D01*
X189884571Y-49486428D01*
X189956000Y-49415000D01*
X190098857Y-49343571D01*
X190456000Y-49343571D01*
X190670285Y-49415000D01*
X191313142Y-50843571D02*
X191313142Y-49343571D01*
D13*
X213289523Y-93668571D02*
X213432380Y-93716190D01*
X213480000Y-93763809D01*
X213527619Y-93859047D01*
X213527619Y-94001904D01*
X213480000Y-94097142D01*
X213432380Y-94144761D01*
X213337142Y-94192380D01*
X212956190Y-94192380D01*
X212956190Y-93192380D01*
X213289523Y-93192380D01*
X213384761Y-93240000D01*
X213432380Y-93287619D01*
X213480000Y-93382857D01*
X213480000Y-93478095D01*
X213432380Y-93573333D01*
X213384761Y-93620952D01*
X213289523Y-93668571D01*
X212956190Y-93668571D01*
X214384761Y-94192380D02*
X214384761Y-93668571D01*
X214337142Y-93573333D01*
X214241904Y-93525714D01*
X214051428Y-93525714D01*
X213956190Y-93573333D01*
X214384761Y-94144761D02*
X214289523Y-94192380D01*
X214051428Y-94192380D01*
X213956190Y-94144761D01*
X213908571Y-94049523D01*
X213908571Y-93954285D01*
X213956190Y-93859047D01*
X214051428Y-93811428D01*
X214289523Y-93811428D01*
X214384761Y-93763809D01*
X214813333Y-94144761D02*
X214908571Y-94192380D01*
X215099047Y-94192380D01*
X215194285Y-94144761D01*
X215241904Y-94049523D01*
X215241904Y-94001904D01*
X215194285Y-93906666D01*
X215099047Y-93859047D01*
X214956190Y-93859047D01*
X214860952Y-93811428D01*
X214813333Y-93716190D01*
X214813333Y-93668571D01*
X214860952Y-93573333D01*
X214956190Y-93525714D01*
X215099047Y-93525714D01*
X215194285Y-93573333D01*
X216051428Y-94144761D02*
X215956190Y-94192380D01*
X215765714Y-94192380D01*
X215670476Y-94144761D01*
X215622857Y-94049523D01*
X215622857Y-93668571D01*
X215670476Y-93573333D01*
X215765714Y-93525714D01*
X215956190Y-93525714D01*
X216051428Y-93573333D01*
X216099047Y-93668571D01*
X216099047Y-93763809D01*
X215622857Y-93859047D01*
X216956190Y-94192380D02*
X216956190Y-93192380D01*
X216956190Y-94144761D02*
X216860952Y-94192380D01*
X216670476Y-94192380D01*
X216575238Y-94144761D01*
X216527619Y-94097142D01*
X216480000Y-94001904D01*
X216480000Y-93716190D01*
X216527619Y-93620952D01*
X216575238Y-93573333D01*
X216670476Y-93525714D01*
X216860952Y-93525714D01*
X216956190Y-93573333D01*
X218337142Y-94192380D02*
X218241904Y-94144761D01*
X218194285Y-94097142D01*
X218146666Y-94001904D01*
X218146666Y-93716190D01*
X218194285Y-93620952D01*
X218241904Y-93573333D01*
X218337142Y-93525714D01*
X218480000Y-93525714D01*
X218575238Y-93573333D01*
X218622857Y-93620952D01*
X218670476Y-93716190D01*
X218670476Y-94001904D01*
X218622857Y-94097142D01*
X218575238Y-94144761D01*
X218480000Y-94192380D01*
X218337142Y-94192380D01*
X219099047Y-93525714D02*
X219099047Y-94192380D01*
X219099047Y-93620952D02*
X219146666Y-93573333D01*
X219241904Y-93525714D01*
X219384761Y-93525714D01*
X219480000Y-93573333D01*
X219527619Y-93668571D01*
X219527619Y-94192380D01*
X220622857Y-93525714D02*
X221003809Y-93525714D01*
X220765714Y-93192380D02*
X220765714Y-94049523D01*
X220813333Y-94144761D01*
X220908571Y-94192380D01*
X221003809Y-94192380D01*
X221337142Y-94192380D02*
X221337142Y-93192380D01*
X221765714Y-94192380D02*
X221765714Y-93668571D01*
X221718095Y-93573333D01*
X221622857Y-93525714D01*
X221480000Y-93525714D01*
X221384761Y-93573333D01*
X221337142Y-93620952D01*
X222622857Y-94144761D02*
X222527619Y-94192380D01*
X222337142Y-94192380D01*
X222241904Y-94144761D01*
X222194285Y-94049523D01*
X222194285Y-93668571D01*
X222241904Y-93573333D01*
X222337142Y-93525714D01*
X222527619Y-93525714D01*
X222622857Y-93573333D01*
X222670476Y-93668571D01*
X222670476Y-93763809D01*
X222194285Y-93859047D01*
X223765714Y-93525714D02*
X223956190Y-94192380D01*
X224146666Y-93716190D01*
X224337142Y-94192380D01*
X224527619Y-93525714D01*
X225051428Y-94192380D02*
X224956190Y-94144761D01*
X224908571Y-94097142D01*
X224860952Y-94001904D01*
X224860952Y-93716190D01*
X224908571Y-93620952D01*
X224956190Y-93573333D01*
X225051428Y-93525714D01*
X225194285Y-93525714D01*
X225289523Y-93573333D01*
X225337142Y-93620952D01*
X225384761Y-93716190D01*
X225384761Y-94001904D01*
X225337142Y-94097142D01*
X225289523Y-94144761D01*
X225194285Y-94192380D01*
X225051428Y-94192380D01*
X225813333Y-94192380D02*
X225813333Y-93525714D01*
X225813333Y-93716190D02*
X225860952Y-93620952D01*
X225908571Y-93573333D01*
X226003809Y-93525714D01*
X226099047Y-93525714D01*
X226432380Y-94192380D02*
X226432380Y-93192380D01*
X226527619Y-93811428D02*
X226813333Y-94192380D01*
X226813333Y-93525714D02*
X226432380Y-93906666D01*
X228146666Y-94192380D02*
X228051428Y-94144761D01*
X228003809Y-94097142D01*
X227956190Y-94001904D01*
X227956190Y-93716190D01*
X228003809Y-93620952D01*
X228051428Y-93573333D01*
X228146666Y-93525714D01*
X228289523Y-93525714D01*
X228384761Y-93573333D01*
X228432380Y-93620952D01*
X228479999Y-93716190D01*
X228479999Y-94001904D01*
X228432380Y-94097142D01*
X228384761Y-94144761D01*
X228289523Y-94192380D01*
X228146666Y-94192380D01*
X228765714Y-93525714D02*
X229146666Y-93525714D01*
X228908571Y-94192380D02*
X228908571Y-93335238D01*
X228956190Y-93240000D01*
X229051428Y-93192380D01*
X229146666Y-93192380D01*
X210908571Y-94990000D02*
X210813333Y-94942380D01*
X210670476Y-94942380D01*
X210527619Y-94990000D01*
X210432380Y-95085238D01*
X210384761Y-95180476D01*
X210337142Y-95370952D01*
X210337142Y-95513809D01*
X210384761Y-95704285D01*
X210432380Y-95799523D01*
X210527619Y-95894761D01*
X210670476Y-95942380D01*
X210765714Y-95942380D01*
X210908571Y-95894761D01*
X210956190Y-95847142D01*
X210956190Y-95513809D01*
X210765714Y-95513809D01*
X211384761Y-95942380D02*
X211384761Y-94942380D01*
X211860952Y-95942380D02*
X211860952Y-94942380D01*
X212194285Y-95656666D01*
X212527619Y-94942380D01*
X212527619Y-95942380D01*
X213194285Y-94942380D02*
X213384761Y-94942380D01*
X213480000Y-94990000D01*
X213575238Y-95085238D01*
X213622857Y-95275714D01*
X213622857Y-95609047D01*
X213575238Y-95799523D01*
X213480000Y-95894761D01*
X213384761Y-95942380D01*
X213194285Y-95942380D01*
X213099047Y-95894761D01*
X213003809Y-95799523D01*
X212956190Y-95609047D01*
X212956190Y-95275714D01*
X213003809Y-95085238D01*
X213099047Y-94990000D01*
X213194285Y-94942380D01*
X214051428Y-95942380D02*
X214051428Y-94942380D01*
X214622857Y-95942380D01*
X214622857Y-94942380D01*
X215051428Y-95894761D02*
X215194285Y-95942380D01*
X215432380Y-95942380D01*
X215527619Y-95894761D01*
X215575238Y-95847142D01*
X215622857Y-95751904D01*
X215622857Y-95656666D01*
X215575238Y-95561428D01*
X215527619Y-95513809D01*
X215432380Y-95466190D01*
X215241904Y-95418571D01*
X215146666Y-95370952D01*
X215099047Y-95323333D01*
X215051428Y-95228095D01*
X215051428Y-95132857D01*
X215099047Y-95037619D01*
X215146666Y-94990000D01*
X215241904Y-94942380D01*
X215480000Y-94942380D01*
X215622857Y-94990000D01*
X216765714Y-94894761D02*
X215908571Y-96180476D01*
X217432380Y-95418571D02*
X217099047Y-95418571D01*
X217099047Y-95942380D02*
X217099047Y-94942380D01*
X217575238Y-94942380D01*
X217956190Y-95942380D02*
X217956190Y-95275714D01*
X217956190Y-95466190D02*
X218003809Y-95370952D01*
X218051428Y-95323333D01*
X218146666Y-95275714D01*
X218241904Y-95275714D01*
X219003809Y-95942380D02*
X219003809Y-95418571D01*
X218956190Y-95323333D01*
X218860952Y-95275714D01*
X218670476Y-95275714D01*
X218575238Y-95323333D01*
X219003809Y-95894761D02*
X218908571Y-95942380D01*
X218670476Y-95942380D01*
X218575238Y-95894761D01*
X218527619Y-95799523D01*
X218527619Y-95704285D01*
X218575238Y-95609047D01*
X218670476Y-95561428D01*
X218908571Y-95561428D01*
X219003809Y-95513809D01*
X219480000Y-95275714D02*
X219480000Y-95942380D01*
X219480000Y-95370952D02*
X219527619Y-95323333D01*
X219622857Y-95275714D01*
X219765714Y-95275714D01*
X219860952Y-95323333D01*
X219908571Y-95418571D01*
X219908571Y-95942380D01*
X220813333Y-95894761D02*
X220718095Y-95942380D01*
X220527619Y-95942380D01*
X220432380Y-95894761D01*
X220384761Y-95847142D01*
X220337142Y-95751904D01*
X220337142Y-95466190D01*
X220384761Y-95370952D01*
X220432380Y-95323333D01*
X220527619Y-95275714D01*
X220718095Y-95275714D01*
X220813333Y-95323333D01*
X221241904Y-95942380D02*
X221241904Y-95275714D01*
X221241904Y-94942380D02*
X221194285Y-94990000D01*
X221241904Y-95037619D01*
X221289523Y-94990000D01*
X221241904Y-94942380D01*
X221241904Y-95037619D01*
X221670476Y-95894761D02*
X221765714Y-95942380D01*
X221956190Y-95942380D01*
X222051428Y-95894761D01*
X222099047Y-95799523D01*
X222099047Y-95751904D01*
X222051428Y-95656666D01*
X221956190Y-95609047D01*
X221813333Y-95609047D01*
X221718095Y-95561428D01*
X221670476Y-95466190D01*
X221670476Y-95418571D01*
X221718095Y-95323333D01*
X221813333Y-95275714D01*
X221956190Y-95275714D01*
X222051428Y-95323333D01*
X223860952Y-95847142D02*
X223813333Y-95894761D01*
X223670476Y-95942380D01*
X223575238Y-95942380D01*
X223432380Y-95894761D01*
X223337142Y-95799523D01*
X223289523Y-95704285D01*
X223241904Y-95513809D01*
X223241904Y-95370952D01*
X223289523Y-95180476D01*
X223337142Y-95085238D01*
X223432380Y-94990000D01*
X223575238Y-94942380D01*
X223670476Y-94942380D01*
X223813333Y-94990000D01*
X223860952Y-95037619D01*
X224718095Y-95942380D02*
X224718095Y-95418571D01*
X224670476Y-95323333D01*
X224575238Y-95275714D01*
X224384761Y-95275714D01*
X224289523Y-95323333D01*
X224718095Y-95894761D02*
X224622857Y-95942380D01*
X224384761Y-95942380D01*
X224289523Y-95894761D01*
X224241904Y-95799523D01*
X224241904Y-95704285D01*
X224289523Y-95609047D01*
X224384761Y-95561428D01*
X224622857Y-95561428D01*
X224718095Y-95513809D01*
X225194285Y-95275714D02*
X225194285Y-96275714D01*
X225194285Y-95323333D02*
X225289523Y-95275714D01*
X225480000Y-95275714D01*
X225575238Y-95323333D01*
X225622857Y-95370952D01*
X225670476Y-95466190D01*
X225670476Y-95751904D01*
X225622857Y-95847142D01*
X225575238Y-95894761D01*
X225480000Y-95942380D01*
X225289523Y-95942380D01*
X225194285Y-95894761D01*
X226813333Y-94894761D02*
X225956190Y-96180476D01*
X227575238Y-95942380D02*
X227575238Y-95418571D01*
X227527619Y-95323333D01*
X227432380Y-95275714D01*
X227241904Y-95275714D01*
X227146666Y-95323333D01*
X227575238Y-95894761D02*
X227480000Y-95942380D01*
X227241904Y-95942380D01*
X227146666Y-95894761D01*
X227099047Y-95799523D01*
X227099047Y-95704285D01*
X227146666Y-95609047D01*
X227241904Y-95561428D01*
X227480000Y-95561428D01*
X227575238Y-95513809D01*
X228051428Y-95942380D02*
X228051428Y-94942380D01*
X228146666Y-95561428D02*
X228432380Y-95942380D01*
X228432380Y-95275714D02*
X228051428Y-95656666D01*
X229289523Y-95275714D02*
X229289523Y-95942380D01*
X228860952Y-95275714D02*
X228860952Y-95799523D01*
X228908571Y-95894761D01*
X229003809Y-95942380D01*
X229146666Y-95942380D01*
X229241904Y-95894761D01*
X229289523Y-95847142D01*
X229765714Y-95942380D02*
X229765714Y-94942380D01*
X229860952Y-95561428D02*
X230146666Y-95942380D01*
X230146666Y-95275714D02*
X229765714Y-95656666D01*
X230956190Y-95894761D02*
X230860952Y-95942380D01*
X230670476Y-95942380D01*
X230575238Y-95894761D01*
X230527619Y-95799523D01*
X230527619Y-95418571D01*
X230575238Y-95323333D01*
X230670476Y-95275714D01*
X230860952Y-95275714D01*
X230956190Y-95323333D01*
X231003809Y-95418571D01*
X231003809Y-95513809D01*
X230527619Y-95609047D01*
X231432380Y-95942380D02*
X231432380Y-95275714D01*
X231432380Y-95466190D02*
X231480000Y-95370952D01*
X231527619Y-95323333D01*
X231622857Y-95275714D01*
X231718095Y-95275714D01*
D14*
X167250000Y-98710000D02*
X250350000Y-98710000D01*
X167250000Y-98710000D02*
X167250000Y-113810000D01*
X250350000Y-98710000D02*
X250350000Y-113810000D01*
X167250000Y-113810000D02*
X250350000Y-113810000D01*
D11*
X209590000Y-60920000D02*
X209590000Y-66040000D01*
X206970000Y-60920000D02*
X206970000Y-66040000D01*
X209590000Y-60920000D02*
X206970000Y-60920000D01*
X209590000Y-66040000D02*
X206970000Y-66040000D01*
X204430000Y-55880000D02*
X207050000Y-55880000D01*
X204430000Y-61000000D02*
X207050000Y-61000000D01*
X207050000Y-61000000D02*
X207050000Y-55880000D01*
X204430000Y-61000000D02*
X204430000Y-55880000D01*
X207050000Y-66040000D02*
X204430000Y-66040000D01*
X207050000Y-60920000D02*
X204430000Y-60920000D01*
X204430000Y-60920000D02*
X204430000Y-66040000D01*
X207050000Y-60920000D02*
X207050000Y-66040000D01*
X206970000Y-55880000D02*
X209590000Y-55880000D01*
X206970000Y-61000000D02*
X209590000Y-61000000D01*
X209590000Y-61000000D02*
X209590000Y-55880000D01*
X206970000Y-61000000D02*
X206970000Y-55880000D01*
X195700000Y-96660000D02*
X195700000Y-93840000D01*
X195700000Y-93840000D02*
X190380000Y-93840000D01*
X190380000Y-93840000D02*
X190380000Y-96660000D01*
X190380000Y-96660000D02*
X195700000Y-96660000D01*
X196840000Y-95250000D02*
X195700000Y-95250000D01*
X189240000Y-95250000D02*
X190380000Y-95250000D01*
X194860000Y-96660000D02*
X194860000Y-93840000D01*
X228990000Y-50800000D02*
X227920000Y-50800000D01*
X223130000Y-50800000D02*
X224200000Y-50800000D01*
X227920000Y-49940000D02*
X224200000Y-49940000D01*
X227920000Y-51660000D02*
X227920000Y-49940000D01*
X224200000Y-51660000D02*
X227920000Y-51660000D01*
X224200000Y-49940000D02*
X224200000Y-51660000D01*
X206840000Y-76070000D02*
X206840000Y-78870000D01*
X206840000Y-78870000D02*
X232580000Y-78870000D01*
X232580000Y-78870000D02*
X232580000Y-76070000D01*
X232580000Y-76070000D02*
X206840000Y-76070000D01*
X209550000Y-76070000D02*
X209550000Y-78870000D01*
X202100000Y-78870000D02*
X202100000Y-76070000D01*
X202100000Y-76070000D02*
X176360000Y-76070000D01*
X176360000Y-76070000D02*
X176360000Y-78870000D01*
X176360000Y-78870000D02*
X202100000Y-78870000D01*
X199390000Y-78870000D02*
X199390000Y-76070000D01*
X207180000Y-56010000D02*
X207180000Y-53210000D01*
X207180000Y-53210000D02*
X181440000Y-53210000D01*
X181440000Y-53210000D02*
X181440000Y-56010000D01*
X181440000Y-56010000D02*
X207180000Y-56010000D01*
X204470000Y-56010000D02*
X204470000Y-53210000D01*
X209490000Y-61960000D02*
X209490000Y-63610000D01*
X209490000Y-63610000D02*
X235010000Y-63610000D01*
X235010000Y-63610000D02*
X235010000Y-58310000D01*
X235010000Y-58310000D02*
X209490000Y-58310000D01*
X209490000Y-58310000D02*
X209490000Y-59960000D01*
X209490000Y-59960000D02*
G75*
G02*
X209490000Y-61960000I0J-1000000D01*
G01*
D10*
X235280000Y-85725000D02*
X235880000Y-85125000D01*
X235880000Y-86325000D02*
X235280000Y-85725000D01*
X235880000Y-85125000D02*
X235880000Y-86325000D01*
X236330000Y-91565000D02*
X235830000Y-91565000D01*
X235830000Y-91665000D02*
X235830000Y-91465000D01*
X236330000Y-91665000D02*
X235830000Y-91665000D01*
X236330000Y-91465000D02*
X236330000Y-91665000D01*
X170570000Y-91565000D02*
X170070000Y-91565000D01*
X170070000Y-91665000D02*
X170070000Y-91465000D01*
X170570000Y-91665000D02*
X170070000Y-91665000D01*
X170570000Y-91465000D02*
X170570000Y-91665000D01*
X203450000Y-91565000D02*
X202950000Y-91565000D01*
X202950000Y-91665000D02*
X202950000Y-91465000D01*
X203450000Y-91665000D02*
X202950000Y-91665000D01*
X203450000Y-91465000D02*
X203450000Y-91665000D01*
X200975000Y-83825000D02*
X200975000Y-82525000D01*
X168850000Y-83825000D02*
X200975000Y-83825000D01*
X168850000Y-90165000D02*
X168850000Y-83825000D01*
X237550000Y-90165000D02*
X168850000Y-90165000D01*
X237550000Y-83825000D02*
X237550000Y-90165000D01*
X205425000Y-83825000D02*
X237550000Y-83825000D01*
X205425000Y-82525000D02*
X205425000Y-83825000D01*
X167650000Y-82525000D02*
X238750000Y-82525000D01*
X167650000Y-91465000D02*
X167650000Y-82525000D01*
X238750000Y-91465000D02*
X167650000Y-91465000D01*
X238750000Y-82525000D02*
X238750000Y-91465000D01*
D15*
G36*
X207391000Y-94996000D02*
G01*
X207010000Y-94996000D01*
X207010000Y-95504000D01*
X207391000Y-95504000D01*
X207391000Y-94996000D01*
G37*
G36*
X201930000Y-94996000D02*
G01*
X201549000Y-94996000D01*
X201549000Y-95504000D01*
X201930000Y-95504000D01*
X201930000Y-94996000D01*
G37*
D16*
X201930000Y-94488000D02*
X201930000Y-96012000D01*
X202184000Y-94234000D02*
X202565000Y-94234000D01*
X202184000Y-96266000D02*
X202565000Y-96266000D01*
X202692000Y-94361000D02*
X206248000Y-94361000D01*
X202692000Y-94361000D02*
X202565000Y-94234000D01*
X202692000Y-96139000D02*
X206248000Y-96139000D01*
X202692000Y-96139000D02*
X202565000Y-96266000D01*
X206248000Y-94361000D02*
X206375000Y-94234000D01*
X206756000Y-94234000D02*
X206375000Y-94234000D01*
X206248000Y-96139000D02*
X206375000Y-96266000D01*
X206756000Y-96266000D02*
X206375000Y-96266000D01*
X207010000Y-94488000D02*
X207010000Y-96012000D01*
X201930000Y-96012000D02*
G75*
G03*
X202184000Y-96266000I254000J0D01*
G01*
X201930000Y-94488000D02*
G75*
G02*
X202184000Y-94234000I254000J0D01*
G01*
X206756000Y-94234000D02*
G75*
G02*
X207010000Y-94488000I0J-254000D01*
G01*
X206756000Y-96266000D02*
G75*
G03*
X207010000Y-96012000I0J254000D01*
G01*
D11*
X207890000Y-50800000D02*
X208960000Y-50800000D01*
X213750000Y-50800000D02*
X212680000Y-50800000D01*
X208960000Y-51660000D02*
X212680000Y-51660000D01*
X208960000Y-49940000D02*
X208960000Y-51660000D01*
X212680000Y-49940000D02*
X208960000Y-49940000D01*
X212680000Y-51660000D02*
X212680000Y-49940000D01*
X170755000Y-66675000D02*
X170755000Y-74355000D01*
X170755000Y-74355000D02*
X173415000Y-74355000D01*
X173415000Y-74355000D02*
X173415000Y-66675000D01*
X173415000Y-66675000D02*
X170755000Y-66675000D01*
X170755000Y-65405000D02*
X170755000Y-64075000D01*
X170755000Y-64075000D02*
X172085000Y-64075000D01*
X199560000Y-81410000D02*
X199560000Y-78610000D01*
X199560000Y-78610000D02*
X173820000Y-78610000D01*
X173820000Y-78610000D02*
X173820000Y-81410000D01*
X173820000Y-81410000D02*
X199560000Y-81410000D01*
X196850000Y-81410000D02*
X196850000Y-78610000D01*
X206950000Y-72120000D02*
X206950000Y-73770000D01*
X206950000Y-73770000D02*
X232470000Y-73770000D01*
X232470000Y-73770000D02*
X232470000Y-68470000D01*
X232470000Y-68470000D02*
X206950000Y-68470000D01*
X206950000Y-68470000D02*
X206950000Y-70120000D01*
X206950000Y-70120000D02*
G75*
G02*
X206950000Y-72120000I0J-1000000D01*
G01*
X207070000Y-70120000D02*
X207070000Y-68470000D01*
X207070000Y-68470000D02*
X181550000Y-68470000D01*
X181550000Y-68470000D02*
X181550000Y-73770000D01*
X181550000Y-73770000D02*
X207070000Y-73770000D01*
X207070000Y-73770000D02*
X207070000Y-72120000D01*
X207070000Y-72120000D02*
G75*
G02*
X207070000Y-70120000I0J1000000D01*
G01*
X204530000Y-59960000D02*
X204530000Y-58310000D01*
X204530000Y-58310000D02*
X179010000Y-58310000D01*
X179010000Y-58310000D02*
X179010000Y-63610000D01*
X179010000Y-63610000D02*
X204530000Y-63610000D01*
X204530000Y-63610000D02*
X204530000Y-61960000D01*
X204530000Y-61960000D02*
G75*
G02*
X204530000Y-59960000I0J1000000D01*
G01*
X209380000Y-78610000D02*
X209380000Y-81410000D01*
X209380000Y-81410000D02*
X235120000Y-81410000D01*
X235120000Y-81410000D02*
X235120000Y-78610000D01*
X235120000Y-78610000D02*
X209380000Y-78610000D01*
X212090000Y-78610000D02*
X212090000Y-81410000D01*
X206840000Y-53210000D02*
X206840000Y-56010000D01*
X206840000Y-56010000D02*
X232580000Y-56010000D01*
X232580000Y-56010000D02*
X232580000Y-53210000D01*
X232580000Y-53210000D02*
X206840000Y-53210000D01*
X209550000Y-53210000D02*
X209550000Y-56010000D01*
X204530000Y-76140000D02*
X201870000Y-76140000D01*
X204530000Y-78740000D02*
X204530000Y-76140000D01*
X201870000Y-78740000D02*
X201870000Y-76140000D01*
X204530000Y-78740000D02*
X201870000Y-78740000D01*
X204530000Y-80010000D02*
X204530000Y-81340000D01*
X204530000Y-81340000D02*
X203200000Y-81340000D01*
X207070000Y-76140000D02*
X204410000Y-76140000D01*
X207070000Y-78740000D02*
X207070000Y-76140000D01*
X204410000Y-78740000D02*
X204410000Y-76140000D01*
X207070000Y-78740000D02*
X204410000Y-78740000D01*
X207070000Y-80010000D02*
X207070000Y-81340000D01*
X207070000Y-81340000D02*
X205740000Y-81340000D01*
X173415000Y-53975000D02*
X173415000Y-43755000D01*
X173415000Y-43755000D02*
X170755000Y-43755000D01*
X170755000Y-43755000D02*
X170755000Y-53975000D01*
X170755000Y-53975000D02*
X173415000Y-53975000D01*
X173415000Y-55245000D02*
X173415000Y-56575000D01*
X173415000Y-56575000D02*
X172085000Y-56575000D01*
X180300000Y-52705000D02*
G75*
G03*
X180300000Y-52705000I-2500000J0D01*
G01*
X175240000Y-51160000D02*
X175240000Y-54250000D01*
X180790000Y-52705462D02*
G75*
G03*
X175240000Y-51160170I-2990000J462D01*
G01*
X180790000Y-52704538D02*
G75*
G02*
X175240000Y-54249830I-2990000J-462D01*
G01*
X238720000Y-52705000D02*
G75*
G03*
X238720000Y-52705000I-2500000J0D01*
G01*
X238780000Y-54250000D02*
X238780000Y-51160000D01*
X233230000Y-52704538D02*
G75*
G03*
X238780000Y-54249830I2990000J-462D01*
G01*
X233230000Y-52705462D02*
G75*
G02*
X238780000Y-51160170I2990000J462D01*
G01*
X235525000Y-62290000D02*
X238185000Y-62290000D01*
X235525000Y-59690000D02*
X235525000Y-62290000D01*
X238185000Y-59690000D02*
X238185000Y-62290000D01*
X235525000Y-59690000D02*
X238185000Y-59690000D01*
X235525000Y-58420000D02*
X235525000Y-57090000D01*
X235525000Y-57090000D02*
X236855000Y-57090000D01*
D10*
X170481666Y-96607380D02*
X170481666Y-97321666D01*
X170434047Y-97464523D01*
X170338809Y-97559761D01*
X170195952Y-97607380D01*
X170100714Y-97607380D01*
X170910238Y-96702619D02*
X170957857Y-96655000D01*
X171053095Y-96607380D01*
X171291190Y-96607380D01*
X171386428Y-96655000D01*
X171434047Y-96702619D01*
X171481666Y-96797857D01*
X171481666Y-96893095D01*
X171434047Y-97035952D01*
X170862619Y-97607380D01*
X171481666Y-97607380D01*
X176363333Y-62587142D02*
X176315714Y-62634761D01*
X176172857Y-62682380D01*
X176077619Y-62682380D01*
X175934761Y-62634761D01*
X175839523Y-62539523D01*
X175791904Y-62444285D01*
X175744285Y-62253809D01*
X175744285Y-62110952D01*
X175791904Y-61920476D01*
X175839523Y-61825238D01*
X175934761Y-61730000D01*
X176077619Y-61682380D01*
X176172857Y-61682380D01*
X176315714Y-61730000D01*
X176363333Y-61777619D01*
X177220476Y-62015714D02*
X177220476Y-62682380D01*
X176982380Y-61634761D02*
X176744285Y-62349047D01*
X177363333Y-62349047D01*
X174458333Y-60047142D02*
X174410714Y-60094761D01*
X174267857Y-60142380D01*
X174172619Y-60142380D01*
X174029761Y-60094761D01*
X173934523Y-59999523D01*
X173886904Y-59904285D01*
X173839285Y-59713809D01*
X173839285Y-59570952D01*
X173886904Y-59380476D01*
X173934523Y-59285238D01*
X174029761Y-59190000D01*
X174172619Y-59142380D01*
X174267857Y-59142380D01*
X174410714Y-59190000D01*
X174458333Y-59237619D01*
X174791666Y-59142380D02*
X175410714Y-59142380D01*
X175077380Y-59523333D01*
X175220238Y-59523333D01*
X175315476Y-59570952D01*
X175363095Y-59618571D01*
X175410714Y-59713809D01*
X175410714Y-59951904D01*
X175363095Y-60047142D01*
X175315476Y-60094761D01*
X175220238Y-60142380D01*
X174934523Y-60142380D01*
X174839285Y-60094761D01*
X174791666Y-60047142D01*
X174458333Y-62587142D02*
X174410714Y-62634761D01*
X174267857Y-62682380D01*
X174172619Y-62682380D01*
X174029761Y-62634761D01*
X173934523Y-62539523D01*
X173886904Y-62444285D01*
X173839285Y-62253809D01*
X173839285Y-62110952D01*
X173886904Y-61920476D01*
X173934523Y-61825238D01*
X174029761Y-61730000D01*
X174172619Y-61682380D01*
X174267857Y-61682380D01*
X174410714Y-61730000D01*
X174458333Y-61777619D01*
X174839285Y-61777619D02*
X174886904Y-61730000D01*
X174982142Y-61682380D01*
X175220238Y-61682380D01*
X175315476Y-61730000D01*
X175363095Y-61777619D01*
X175410714Y-61872857D01*
X175410714Y-61968095D01*
X175363095Y-62110952D01*
X174791666Y-62682380D01*
X175410714Y-62682380D01*
X176363333Y-60047142D02*
X176315714Y-60094761D01*
X176172857Y-60142380D01*
X176077619Y-60142380D01*
X175934761Y-60094761D01*
X175839523Y-59999523D01*
X175791904Y-59904285D01*
X175744285Y-59713809D01*
X175744285Y-59570952D01*
X175791904Y-59380476D01*
X175839523Y-59285238D01*
X175934761Y-59190000D01*
X176077619Y-59142380D01*
X176172857Y-59142380D01*
X176315714Y-59190000D01*
X176363333Y-59237619D01*
X177315714Y-60142380D02*
X176744285Y-60142380D01*
X177030000Y-60142380D02*
X177030000Y-59142380D01*
X176934761Y-59285238D01*
X176839523Y-59380476D01*
X176744285Y-59428095D01*
X192301904Y-93162380D02*
X192301904Y-92162380D01*
X192540000Y-92162380D01*
X192682857Y-92210000D01*
X192778095Y-92305238D01*
X192825714Y-92400476D01*
X192873333Y-92590952D01*
X192873333Y-92733809D01*
X192825714Y-92924285D01*
X192778095Y-93019523D01*
X192682857Y-93114761D01*
X192540000Y-93162380D01*
X192301904Y-93162380D01*
X193825714Y-93162380D02*
X193254285Y-93162380D01*
X193540000Y-93162380D02*
X193540000Y-92162380D01*
X193444761Y-92305238D01*
X193349523Y-92400476D01*
X193254285Y-92448095D01*
X227163333Y-49728380D02*
X226830000Y-49252190D01*
X226591904Y-49728380D02*
X226591904Y-48728380D01*
X226972857Y-48728380D01*
X227068095Y-48776000D01*
X227115714Y-48823619D01*
X227163333Y-48918857D01*
X227163333Y-49061714D01*
X227115714Y-49156952D01*
X227068095Y-49204571D01*
X226972857Y-49252190D01*
X226591904Y-49252190D01*
X228115714Y-49728380D02*
X227544285Y-49728380D01*
X227830000Y-49728380D02*
X227830000Y-48728380D01*
X227734761Y-48871238D01*
X227639523Y-48966476D01*
X227544285Y-49014095D01*
X233624523Y-77922380D02*
X233291190Y-77446190D01*
X233053095Y-77922380D02*
X233053095Y-76922380D01*
X233434047Y-76922380D01*
X233529285Y-76970000D01*
X233576904Y-77017619D01*
X233624523Y-77112857D01*
X233624523Y-77255714D01*
X233576904Y-77350952D01*
X233529285Y-77398571D01*
X233434047Y-77446190D01*
X233053095Y-77446190D01*
X234053095Y-77922380D02*
X234053095Y-76922380D01*
X234624523Y-77922380D01*
X234624523Y-76922380D01*
X235529285Y-77255714D02*
X235529285Y-77922380D01*
X235291190Y-76874761D02*
X235053095Y-77589047D01*
X235672142Y-77589047D01*
X173934523Y-77922380D02*
X173601190Y-77446190D01*
X173363095Y-77922380D02*
X173363095Y-76922380D01*
X173744047Y-76922380D01*
X173839285Y-76970000D01*
X173886904Y-77017619D01*
X173934523Y-77112857D01*
X173934523Y-77255714D01*
X173886904Y-77350952D01*
X173839285Y-77398571D01*
X173744047Y-77446190D01*
X173363095Y-77446190D01*
X174363095Y-77922380D02*
X174363095Y-76922380D01*
X174934523Y-77922380D01*
X174934523Y-76922380D01*
X175839285Y-76922380D02*
X175648809Y-76922380D01*
X175553571Y-76970000D01*
X175505952Y-77017619D01*
X175410714Y-77160476D01*
X175363095Y-77350952D01*
X175363095Y-77731904D01*
X175410714Y-77827142D01*
X175458333Y-77874761D01*
X175553571Y-77922380D01*
X175744047Y-77922380D01*
X175839285Y-77874761D01*
X175886904Y-77827142D01*
X175934523Y-77731904D01*
X175934523Y-77493809D01*
X175886904Y-77398571D01*
X175839285Y-77350952D01*
X175744047Y-77303333D01*
X175553571Y-77303333D01*
X175458333Y-77350952D01*
X175410714Y-77398571D01*
X175363095Y-77493809D01*
X183332380Y-52125476D02*
X182856190Y-52458809D01*
X183332380Y-52696904D02*
X182332380Y-52696904D01*
X182332380Y-52315952D01*
X182380000Y-52220714D01*
X182427619Y-52173095D01*
X182522857Y-52125476D01*
X182665714Y-52125476D01*
X182760952Y-52173095D01*
X182808571Y-52220714D01*
X182856190Y-52315952D01*
X182856190Y-52696904D01*
X183332380Y-51696904D02*
X182332380Y-51696904D01*
X183332380Y-51125476D01*
X182332380Y-51125476D01*
X182427619Y-50696904D02*
X182380000Y-50649285D01*
X182332380Y-50554047D01*
X182332380Y-50315952D01*
X182380000Y-50220714D01*
X182427619Y-50173095D01*
X182522857Y-50125476D01*
X182618095Y-50125476D01*
X182760952Y-50173095D01*
X183332380Y-50744523D01*
X183332380Y-50125476D01*
X235458095Y-64222380D02*
X235458095Y-65031904D01*
X235505714Y-65127142D01*
X235553333Y-65174761D01*
X235648571Y-65222380D01*
X235839047Y-65222380D01*
X235934285Y-65174761D01*
X235981904Y-65127142D01*
X236029523Y-65031904D01*
X236029523Y-64222380D01*
X237029523Y-65222380D02*
X236458095Y-65222380D01*
X236743809Y-65222380D02*
X236743809Y-64222380D01*
X236648571Y-64365238D01*
X236553333Y-64460476D01*
X236458095Y-64508095D01*
X170481666Y-92162380D02*
X170481666Y-92876666D01*
X170434047Y-93019523D01*
X170338809Y-93114761D01*
X170195952Y-93162380D01*
X170100714Y-93162380D01*
X170862619Y-92162380D02*
X171481666Y-92162380D01*
X171148333Y-92543333D01*
X171291190Y-92543333D01*
X171386428Y-92590952D01*
X171434047Y-92638571D01*
X171481666Y-92733809D01*
X171481666Y-92971904D01*
X171434047Y-93067142D01*
X171386428Y-93114761D01*
X171291190Y-93162380D01*
X171005476Y-93162380D01*
X170910238Y-93114761D01*
X170862619Y-93067142D01*
X204404404Y-93408571D02*
X204071071Y-93408571D01*
X204071071Y-93932380D02*
X204071071Y-92932380D01*
X204547261Y-92932380D01*
X205452023Y-93932380D02*
X204880595Y-93932380D01*
X205166309Y-93932380D02*
X205166309Y-92932380D01*
X205071071Y-93075238D01*
X204975833Y-93170476D01*
X204880595Y-93218095D01*
X216368333Y-51252380D02*
X216035000Y-50776190D01*
X215796904Y-51252380D02*
X215796904Y-50252380D01*
X216177857Y-50252380D01*
X216273095Y-50300000D01*
X216320714Y-50347619D01*
X216368333Y-50442857D01*
X216368333Y-50585714D01*
X216320714Y-50680952D01*
X216273095Y-50728571D01*
X216177857Y-50776190D01*
X215796904Y-50776190D01*
X216749285Y-50347619D02*
X216796904Y-50300000D01*
X216892142Y-50252380D01*
X217130238Y-50252380D01*
X217225476Y-50300000D01*
X217273095Y-50347619D01*
X217320714Y-50442857D01*
X217320714Y-50538095D01*
X217273095Y-50680952D01*
X216701666Y-51252380D01*
X217320714Y-51252380D01*
X174291666Y-73747380D02*
X174291666Y-74461666D01*
X174244047Y-74604523D01*
X174148809Y-74699761D01*
X174005952Y-74747380D01*
X173910714Y-74747380D01*
X175244047Y-73747380D02*
X174767857Y-73747380D01*
X174720238Y-74223571D01*
X174767857Y-74175952D01*
X174863095Y-74128333D01*
X175101190Y-74128333D01*
X175196428Y-74175952D01*
X175244047Y-74223571D01*
X175291666Y-74318809D01*
X175291666Y-74556904D01*
X175244047Y-74652142D01*
X175196428Y-74699761D01*
X175101190Y-74747380D01*
X174863095Y-74747380D01*
X174767857Y-74699761D01*
X174720238Y-74652142D01*
X171394523Y-80462380D02*
X171061190Y-79986190D01*
X170823095Y-80462380D02*
X170823095Y-79462380D01*
X171204047Y-79462380D01*
X171299285Y-79510000D01*
X171346904Y-79557619D01*
X171394523Y-79652857D01*
X171394523Y-79795714D01*
X171346904Y-79890952D01*
X171299285Y-79938571D01*
X171204047Y-79986190D01*
X170823095Y-79986190D01*
X171823095Y-80462380D02*
X171823095Y-79462380D01*
X172394523Y-80462380D01*
X172394523Y-79462380D01*
X173346904Y-79462380D02*
X172870714Y-79462380D01*
X172823095Y-79938571D01*
X172870714Y-79890952D01*
X172965952Y-79843333D01*
X173204047Y-79843333D01*
X173299285Y-79890952D01*
X173346904Y-79938571D01*
X173394523Y-80033809D01*
X173394523Y-80271904D01*
X173346904Y-80367142D01*
X173299285Y-80414761D01*
X173204047Y-80462380D01*
X172965952Y-80462380D01*
X172870714Y-80414761D01*
X172823095Y-80367142D01*
X179578095Y-72477380D02*
X179578095Y-73286904D01*
X179625714Y-73382142D01*
X179673333Y-73429761D01*
X179768571Y-73477380D01*
X179959047Y-73477380D01*
X180054285Y-73429761D01*
X180101904Y-73382142D01*
X180149523Y-73286904D01*
X180149523Y-72477380D01*
X180578095Y-72572619D02*
X180625714Y-72525000D01*
X180720952Y-72477380D01*
X180959047Y-72477380D01*
X181054285Y-72525000D01*
X181101904Y-72572619D01*
X181149523Y-72667857D01*
X181149523Y-72763095D01*
X181101904Y-72905952D01*
X180530476Y-73477380D01*
X181149523Y-73477380D01*
X232918095Y-72477380D02*
X232918095Y-73286904D01*
X232965714Y-73382142D01*
X233013333Y-73429761D01*
X233108571Y-73477380D01*
X233299047Y-73477380D01*
X233394285Y-73429761D01*
X233441904Y-73382142D01*
X233489523Y-73286904D01*
X233489523Y-72477380D01*
X234394285Y-72810714D02*
X234394285Y-73477380D01*
X234156190Y-72429761D02*
X233918095Y-73144047D01*
X234537142Y-73144047D01*
X177038095Y-63587380D02*
X177038095Y-64396904D01*
X177085714Y-64492142D01*
X177133333Y-64539761D01*
X177228571Y-64587380D01*
X177419047Y-64587380D01*
X177514285Y-64539761D01*
X177561904Y-64492142D01*
X177609523Y-64396904D01*
X177609523Y-63587380D01*
X177990476Y-63587380D02*
X178609523Y-63587380D01*
X178276190Y-63968333D01*
X178419047Y-63968333D01*
X178514285Y-64015952D01*
X178561904Y-64063571D01*
X178609523Y-64158809D01*
X178609523Y-64396904D01*
X178561904Y-64492142D01*
X178514285Y-64539761D01*
X178419047Y-64587380D01*
X178133333Y-64587380D01*
X178038095Y-64539761D01*
X177990476Y-64492142D01*
X236164523Y-80462380D02*
X235831190Y-79986190D01*
X235593095Y-80462380D02*
X235593095Y-79462380D01*
X235974047Y-79462380D01*
X236069285Y-79510000D01*
X236116904Y-79557619D01*
X236164523Y-79652857D01*
X236164523Y-79795714D01*
X236116904Y-79890952D01*
X236069285Y-79938571D01*
X235974047Y-79986190D01*
X235593095Y-79986190D01*
X236593095Y-80462380D02*
X236593095Y-79462380D01*
X237164523Y-80462380D01*
X237164523Y-79462380D01*
X237545476Y-79462380D02*
X238164523Y-79462380D01*
X237831190Y-79843333D01*
X237974047Y-79843333D01*
X238069285Y-79890952D01*
X238116904Y-79938571D01*
X238164523Y-80033809D01*
X238164523Y-80271904D01*
X238116904Y-80367142D01*
X238069285Y-80414761D01*
X237974047Y-80462380D01*
X237688333Y-80462380D01*
X237593095Y-80414761D01*
X237545476Y-80367142D01*
X219019523Y-52662380D02*
X218686190Y-52186190D01*
X218448095Y-52662380D02*
X218448095Y-51662380D01*
X218829047Y-51662380D01*
X218924285Y-51710000D01*
X218971904Y-51757619D01*
X219019523Y-51852857D01*
X219019523Y-51995714D01*
X218971904Y-52090952D01*
X218924285Y-52138571D01*
X218829047Y-52186190D01*
X218448095Y-52186190D01*
X219448095Y-52662380D02*
X219448095Y-51662380D01*
X220019523Y-52662380D01*
X220019523Y-51662380D01*
X221019523Y-52662380D02*
X220448095Y-52662380D01*
X220733809Y-52662380D02*
X220733809Y-51662380D01*
X220638571Y-51805238D01*
X220543333Y-51900476D01*
X220448095Y-51948095D01*
X200747380Y-81478333D02*
X201461666Y-81478333D01*
X201604523Y-81525952D01*
X201699761Y-81621190D01*
X201747380Y-81764047D01*
X201747380Y-81859285D01*
X201747380Y-81002142D02*
X200747380Y-81002142D01*
X200747380Y-80621190D01*
X200795000Y-80525952D01*
X200842619Y-80478333D01*
X200937857Y-80430714D01*
X201080714Y-80430714D01*
X201175952Y-80478333D01*
X201223571Y-80525952D01*
X201271190Y-80621190D01*
X201271190Y-81002142D01*
X200842619Y-80049761D02*
X200795000Y-80002142D01*
X200747380Y-79906904D01*
X200747380Y-79668809D01*
X200795000Y-79573571D01*
X200842619Y-79525952D01*
X200937857Y-79478333D01*
X201033095Y-79478333D01*
X201175952Y-79525952D01*
X201747380Y-80097380D01*
X201747380Y-79478333D01*
X207732380Y-81478333D02*
X208446666Y-81478333D01*
X208589523Y-81525952D01*
X208684761Y-81621190D01*
X208732380Y-81764047D01*
X208732380Y-81859285D01*
X208732380Y-81002142D02*
X207732380Y-81002142D01*
X207732380Y-80621190D01*
X207780000Y-80525952D01*
X207827619Y-80478333D01*
X207922857Y-80430714D01*
X208065714Y-80430714D01*
X208160952Y-80478333D01*
X208208571Y-80525952D01*
X208256190Y-80621190D01*
X208256190Y-81002142D01*
X208732380Y-79478333D02*
X208732380Y-80049761D01*
X208732380Y-79764047D02*
X207732380Y-79764047D01*
X207875238Y-79859285D01*
X207970476Y-79954523D01*
X208018095Y-80049761D01*
X174291666Y-43267380D02*
X174291666Y-43981666D01*
X174244047Y-44124523D01*
X174148809Y-44219761D01*
X174005952Y-44267380D01*
X173910714Y-44267380D01*
X175196428Y-43600714D02*
X175196428Y-44267380D01*
X174958333Y-43219761D02*
X174720238Y-43934047D01*
X175339285Y-43934047D01*
X173886904Y-49982380D02*
X173886904Y-48982380D01*
X174125000Y-48982380D01*
X174267857Y-49030000D01*
X174363095Y-49125238D01*
X174410714Y-49220476D01*
X174458333Y-49410952D01*
X174458333Y-49553809D01*
X174410714Y-49744285D01*
X174363095Y-49839523D01*
X174267857Y-49934761D01*
X174125000Y-49982380D01*
X173886904Y-49982380D01*
X174791666Y-48982380D02*
X175410714Y-48982380D01*
X175077380Y-49363333D01*
X175220238Y-49363333D01*
X175315476Y-49410952D01*
X175363095Y-49458571D01*
X175410714Y-49553809D01*
X175410714Y-49791904D01*
X175363095Y-49887142D01*
X175315476Y-49934761D01*
X175220238Y-49982380D01*
X174934523Y-49982380D01*
X174839285Y-49934761D01*
X174791666Y-49887142D01*
X232306904Y-49982380D02*
X232306904Y-48982380D01*
X232545000Y-48982380D01*
X232687857Y-49030000D01*
X232783095Y-49125238D01*
X232830714Y-49220476D01*
X232878333Y-49410952D01*
X232878333Y-49553809D01*
X232830714Y-49744285D01*
X232783095Y-49839523D01*
X232687857Y-49934761D01*
X232545000Y-49982380D01*
X232306904Y-49982380D01*
X233259285Y-49077619D02*
X233306904Y-49030000D01*
X233402142Y-48982380D01*
X233640238Y-48982380D01*
X233735476Y-49030000D01*
X233783095Y-49077619D01*
X233830714Y-49172857D01*
X233830714Y-49268095D01*
X233783095Y-49410952D01*
X233211666Y-49982380D01*
X233830714Y-49982380D01*
X236521666Y-62444380D02*
X236521666Y-63158666D01*
X236474047Y-63301523D01*
X236378809Y-63396761D01*
X236235952Y-63444380D01*
X236140714Y-63444380D01*
X237426428Y-62444380D02*
X237235952Y-62444380D01*
X237140714Y-62492000D01*
X237093095Y-62539619D01*
X236997857Y-62682476D01*
X236950238Y-62872952D01*
X236950238Y-63253904D01*
X236997857Y-63349142D01*
X237045476Y-63396761D01*
X237140714Y-63444380D01*
X237331190Y-63444380D01*
X237426428Y-63396761D01*
X237474047Y-63349142D01*
X237521666Y-63253904D01*
X237521666Y-63015809D01*
X237474047Y-62920571D01*
X237426428Y-62872952D01*
X237331190Y-62825333D01*
X237140714Y-62825333D01*
X237045476Y-62872952D01*
X236997857Y-62920571D01*
X236950238Y-63015809D01*
M02*
