M48
; DRILL file {KiCad (5.1.6)-1} date 07/30/20 19:52:07
; FORMAT={-:-/ absolute / inch / decimal}
; #@! TF.CreationDate,2020-07-30T19:52:07+02:00
; #@! TF.GenerationSoftware,Kicad,Pcbnew,(5.1.6)-1
; #@! TF.FileFunction,NonPlated,1,2,NPTH
FMAT,2
INCH
T5C0.0354
%
G90
G05
T5
X7.2Y-3.975
;X7.2Y-4.1439
X7.285Y-3.975
;X7.285Y-4.1439
X7.3701Y-3.975
;X7.3701Y-4.1439
X7.4551Y-3.975
;X7.4551Y-4.1439
X7.5402Y-3.975
;X7.5402Y-4.1439
X7.6252Y-3.975
;X7.6252Y-4.1439
X7.7102Y-3.975
;X7.7102Y-4.1439
X7.7953Y-3.975
;X7.7953Y-4.1439
X7.8803Y-3.975
;X7.8803Y-4.1439
X7.9654Y-3.975
;X7.9654Y-4.1439
X8.0504Y-3.975
;X8.0504Y-4.1439
X8.1354Y-3.975
;X8.1354Y-4.1439
X8.2205Y-3.975
;X8.2205Y-4.1439
X8.3055Y-3.975
;X8.3055Y-4.1439
X8.3906Y-3.975
;X8.3906Y-4.1439
X8.4756Y-3.975
;X8.4756Y-4.1439
X8.5606Y-3.975
;X8.5606Y-4.1439
X8.6457Y-3.975
;X8.6457Y-4.1439
X8.7307Y-3.975
;X8.7307Y-4.1439
X8.8157Y-3.975
;X8.8157Y-4.1439
X8.9008Y-3.975
;X8.9008Y-4.1439
X8.9858Y-3.975
;X8.9858Y-4.1439
X9.0709Y-3.975
;X9.0709Y-4.1439
X9.1559Y-3.975
;X9.1559Y-4.1439
X9.2409Y-3.975
;X9.2409Y-4.1439
T0
M30
