M48
; DRILL file {KiCad (5.1.6)-1} date 08/01/20 01:33:17
; FORMAT={-:-/ absolute / inch / decimal}
; #@! TF.CreationDate,2020-08-01T01:33:17+02:00
; #@! TF.GenerationSoftware,Kicad,Pcbnew,(5.1.6)-1
; #@! TF.FileFunction,Plated,1,2,PTH
FMAT,2
INCH
T1C0.0197
T2C0.0236
T3C0.0276
T4C0.0315
T5C0.0320
T6C0.0354
T7C0.0394
T8C0.0433
T9C0.1063
T10C0.1260
%
G90
G05
T1
X6.9281Y-1.811
X6.9515Y-1.7546
X6.9515Y-1.8674
X7.0079Y-1.7313
X7.0079Y-1.8907
X7.0642Y-1.7546
X7.0642Y-1.8674
X7.0876Y-1.811
X6.9281Y-3.7402
X6.9515Y-3.6838
X6.9515Y-3.7965
X7.0079Y-3.6604
X7.0079Y-3.8199
X7.0642Y-3.6838
X7.0642Y-3.7965
X7.0876Y-3.7402
X9.2116Y-1.811
X9.235Y-1.7546
X9.235Y-1.8674
X9.2913Y-1.7313
X9.2913Y-1.8907
X9.3477Y-1.7546
X9.3477Y-1.8674
X9.3711Y-1.811
X9.2116Y-3.7402
X9.235Y-3.6838
X9.235Y-3.7965
X9.2913Y-3.6604
X9.2913Y-3.8199
X9.3477Y-3.6838
X9.3477Y-3.7965
X9.3711Y-3.7402
X6.9281Y-2.7165
X6.9515Y-2.6602
X6.9515Y-2.7729
X7.0079Y-2.6368
X7.0079Y-2.7963
X7.0642Y-2.6602
X7.0642Y-2.7729
X7.0876Y-2.7165
X9.2116Y-2.7165
X9.235Y-2.6602
X9.235Y-2.7729
X9.2913Y-2.6368
X9.2913Y-2.7963
X9.3477Y-2.6602
X9.3477Y-2.7729
X9.3711Y-2.7165
T2
X6.65Y-1.825
X6.65Y-2.375
X6.65Y-2.5
X6.65Y-2.65
X6.65Y-2.8
X6.65Y-2.95
X6.65Y-3.1
X6.65Y-3.25
X6.65Y-3.4
X6.65Y-3.55
X6.65Y-3.7
X6.65Y-3.85
X6.65Y-4.25
X6.675Y-4.35
X6.75Y-3.225
X6.775Y-2.25
X6.775Y-4.4
X6.8Y-2.4
X6.9Y-2.3
X6.9Y-2.5
X6.9Y-3.225
X6.925Y-2.975
X6.925Y-4.4
X6.94Y-2.2
X7.0Y-3.225
X7.075Y-2.475
X7.075Y-2.95
X7.075Y-4.4
X7.1Y-3.225
X7.125Y-4.1
X7.15Y-2.05
X7.175Y-3.825
X7.2Y-3.225
X7.225Y-4.4
X7.25Y-2.04
X7.25Y-2.375
X7.275Y-3.825
X7.3Y-3.225
X7.35Y-2.325
X7.375Y-4.4
X7.4Y-2.875
X7.4Y-3.225
X7.45Y-2.04
X7.45Y-3.825
X7.5Y-2.475
X7.5Y-2.725
X7.5Y-3.225
X7.525Y-4.4
X7.54Y-3.825
X7.6Y-2.325
X7.6Y-3.225
X7.625Y-3.825
X7.675Y-4.4
X7.7Y-2.875
X7.7Y-3.225
X7.7Y-3.65
X7.71Y-3.85
X7.75Y-2.025
X7.8Y-2.475
X7.8Y-2.725
X7.8Y-3.225
X7.8Y-3.85
X7.825Y-4.4
X7.85Y-3.65
X7.9Y-2.325
X7.95Y-3.825
X7.975Y-2.025
X7.975Y-4.4
X8.0Y-2.35
X8.0Y-2.725
X8.0Y-3.3
X8.0Y-3.65
X8.05Y-1.95
X8.05Y-2.075
X8.05Y-2.875
X8.1Y-3.825
X8.125Y-4.4
X8.175Y-2.875
X8.175Y-3.65
X8.2Y-2.075
X8.2Y-2.725
X8.275Y-3.225
X8.275Y-4.4
X8.3Y-2.35
X8.3Y-2.875
X8.3Y-3.825
X8.325Y-2.075
X8.35Y-3.65
X8.4Y-2.725
X8.4Y-2.875
X8.4Y-3.225
X8.425Y-4.4
X8.45Y-2.075
X8.45Y-3.65
X8.45Y-3.825
X8.5Y-2.325
X8.5Y-3.225
X8.55Y-2.075
X8.55Y-2.725
X8.55Y-2.875
X8.55Y-3.65
X8.55Y-3.825
X8.575Y-4.4
X8.6Y-2.4
X8.6Y-3.225
X8.65Y-2.0
X8.65Y-3.65
X8.65Y-3.825
X8.7Y-2.4
X8.7Y-3.225
X8.725Y-4.4
X8.75Y-2.725
X8.75Y-2.875
X8.75Y-3.65
X8.75Y-3.825
X8.8Y-2.4
X8.8Y-3.225
X8.85Y-3.65
X8.85Y-3.825
X8.875Y-1.975
X8.875Y-4.4
X8.9Y-2.4
X8.9Y-3.225
X8.95Y-2.725
X8.95Y-2.875
X8.95Y-3.65
X8.95Y-3.825
X9.0Y-2.4
X9.0Y-3.225
X9.025Y-2.075
X9.025Y-4.4
X9.05Y-3.65
X9.05Y-3.825
X9.1Y-2.4
X9.1Y-2.8
X9.1Y-3.225
X9.15Y-2.075
X9.15Y-3.85
X9.175Y-4.4
X9.2Y-2.4
X9.2Y-3.225
X9.2Y-3.55
X9.325Y-4.1
X9.325Y-4.4
X9.35Y-2.925
X9.35Y-3.075
X9.35Y-3.225
X9.35Y-3.375
X9.35Y-3.525
X9.425Y-3.975
X9.475Y-4.4
X9.625Y-4.4
X9.75Y-4.35
X9.8Y-4.25
T3
X8.15Y-2.0
X8.45Y-2.0
X8.75Y-2.0
X9.05Y-2.0
T4
X7.1Y-2.25
X7.1Y-2.55
X7.2Y-2.25
X7.2Y-2.55
X7.3Y-2.25
X7.3Y-2.55
X7.4Y-2.25
X7.4Y-2.55
X7.5Y-2.25
X7.5Y-2.55
X7.6Y-2.25
X7.6Y-2.55
X7.7Y-2.25
X7.7Y-2.55
X7.8Y-2.25
X7.8Y-2.55
X7.9Y-2.25
X7.9Y-2.55
X8.0Y-2.25
X8.0Y-2.55
X8.1Y-2.2516
X8.1Y-2.35
X8.2Y-2.65
X8.2Y-2.95
X8.3Y-2.65
X8.3Y-2.95
X8.4Y-2.65
X8.4Y-2.95
X8.5Y-2.65
X8.5Y-2.95
X8.6Y-2.65
X8.6Y-2.95
X8.7Y-2.65
X8.7Y-2.95
X8.8Y-2.65
X8.8Y-2.95
X8.9Y-2.65
X8.9Y-2.95
X9.0Y-2.65
X9.0Y-2.95
X9.1Y-2.65
X9.1Y-2.95
X7.2Y-2.15
X7.3Y-2.15
X7.4Y-2.15
X7.5Y-2.15
X7.6Y-2.15
X7.7Y-2.15
X7.8Y-2.15
X7.9Y-2.15
X8.0Y-2.15
X8.1Y-2.15
X7.2Y-2.65
X7.2Y-2.95
X7.3Y-2.65
X7.3Y-2.95
X7.4Y-2.65
X7.4Y-2.95
X7.5Y-2.65
X7.5Y-2.95
X7.6Y-2.65
X7.6Y-2.95
X7.7Y-2.65
X7.7Y-2.95
X7.8Y-2.65
X7.8Y-2.95
X7.9Y-2.65
X7.9Y-2.95
X8.0Y-2.65
X8.0Y-2.95
X8.1Y-2.65
X8.1Y-2.95
X8.2Y-2.45
X8.2Y-2.5484
X8.3Y-2.25
X8.3Y-2.55
X8.4Y-2.25
X8.4Y-2.55
X8.5Y-2.25
X8.5Y-2.55
X8.6Y-2.25
X8.6Y-2.55
X8.7Y-2.25
X8.7Y-2.55
X8.8Y-2.25
X8.8Y-2.55
X8.9Y-2.25
X8.9Y-2.55
X9.0Y-2.25
X9.0Y-2.55
X9.1Y-2.25
X9.1Y-2.55
X9.2Y-2.25
X9.2Y-2.55
X8.2Y-3.05
X8.3Y-3.05
X8.4Y-3.05
X8.5Y-3.05
X8.6Y-3.05
X8.7Y-3.05
X8.8Y-3.05
X8.9Y-3.05
X9.0Y-3.05
X9.1Y-3.05
X7.0Y-3.05
X7.1Y-3.05
X7.2Y-3.05
X7.3Y-3.05
X7.4Y-3.05
X7.5Y-3.05
X7.6Y-3.05
X7.7Y-3.05
X7.8Y-3.05
X7.9Y-3.05
X6.9Y-3.15
X7.0Y-3.15
X7.1Y-3.15
X7.2Y-3.15
X7.3Y-3.15
X7.4Y-3.15
X7.5Y-3.15
X7.6Y-3.15
X7.7Y-3.15
X7.8Y-3.15
X8.3Y-3.15
X8.4Y-3.15
X8.5Y-3.15
X8.6Y-3.15
X8.7Y-3.15
X8.8Y-3.15
X8.9Y-3.15
X9.0Y-3.15
X9.1Y-3.15
X9.2Y-3.15
X8.2Y-2.2516
X8.2Y-2.35
X8.2Y-2.15
X8.3Y-2.15
X8.4Y-2.15
X8.5Y-2.15
X8.6Y-2.15
X8.7Y-2.15
X8.8Y-2.15
X8.9Y-2.15
X9.0Y-2.15
X9.1Y-2.15
X8.1Y-2.45
X8.1Y-2.5484
T5
X7.9Y-3.75
X8.2Y-3.75
T6
X6.95Y-2.075
X7.05Y-2.075
X9.25Y-2.075
X9.35Y-2.075
;X7.2Y-3.975
X7.2Y-4.1439
;X7.285Y-3.975
X7.285Y-4.1439
;X7.3701Y-3.975
X7.3701Y-4.1439
;X7.4551Y-3.975
X7.4551Y-4.1439
;X7.5402Y-3.975
X7.5402Y-4.1439
;X7.6252Y-3.975
X7.6252Y-4.1439
;X7.7102Y-3.975
X7.7102Y-4.1439
;X7.7953Y-3.975
X7.7953Y-4.1439
;X7.8803Y-3.975
X7.8803Y-4.1439
;X7.9654Y-3.975
X7.9654Y-4.1439
;X8.0504Y-3.975
X8.0504Y-4.1439
;X8.1354Y-3.975
X8.1354Y-4.1439
;X8.2205Y-3.975
X8.2205Y-4.1439
;X8.3055Y-3.975
X8.3055Y-4.1439
;X8.3906Y-3.975
X8.3906Y-4.1439
;X8.4756Y-3.975
X8.4756Y-4.1439
;X8.5606Y-3.975
X8.5606Y-4.1439
;X8.6457Y-3.975
X8.6457Y-4.1439
;X8.7307Y-3.975
X8.7307Y-4.1439
;X8.8157Y-3.975
X8.8157Y-4.1439
;X8.9008Y-3.975
X8.9008Y-4.1439
;X8.9858Y-3.975
X8.9858Y-4.1439
;X9.0709Y-3.975
X9.0709Y-4.1439
;X9.1559Y-3.975
X9.1559Y-4.1439
;X9.2409Y-3.975
X9.2409Y-4.1439
T7
X6.775Y-1.775
X6.775Y-1.875
X6.775Y-1.975
X6.775Y-2.075
X6.775Y-2.175
X8.0Y-3.05
X8.0Y-3.15
X6.775Y-2.575
X6.775Y-2.675
X6.775Y-2.775
X6.775Y-2.875
X6.8Y-3.375
X6.8Y-3.475
X6.9Y-3.375
X6.9Y-3.475
X7.0Y-3.375
X7.0Y-3.475
X7.1Y-3.375
X7.1Y-3.475
X7.2Y-3.375
X7.2Y-3.475
X7.3Y-3.375
X7.3Y-3.475
X7.4Y-3.375
X7.4Y-3.475
X7.5Y-3.375
X7.5Y-3.475
X7.6Y-3.375
X7.6Y-3.475
X7.7Y-3.375
X7.7Y-3.475
X7.8Y-3.375
X7.8Y-3.475
X7.9Y-3.375
X7.9Y-3.475
X8.0Y-3.375
X8.0Y-3.475
X8.1Y-3.375
X8.1Y-3.475
X8.2Y-3.375
X8.2Y-3.475
X8.3Y-3.375
X8.3Y-3.475
X8.4Y-3.375
X8.4Y-3.475
X8.5Y-3.375
X8.5Y-3.475
X8.6Y-3.375
X8.6Y-3.475
X8.7Y-3.375
X8.7Y-3.475
X8.8Y-3.375
X8.8Y-3.475
X8.9Y-3.375
X8.9Y-3.475
X9.0Y-3.375
X9.0Y-3.475
X9.1Y-3.375
X9.1Y-3.475
X9.2Y-3.375
X9.2Y-3.475
X7.2Y-1.761
X7.2Y-1.861
X7.3Y-1.761
X7.3Y-1.861
X7.4Y-1.761
X7.4Y-1.861
X7.5Y-1.761
X7.5Y-1.861
X7.6Y-1.761
X7.6Y-1.861
X7.7Y-1.761
X7.7Y-1.861
X7.8Y-1.761
X7.8Y-1.861
X7.9Y-1.761
X7.9Y-1.861
X8.0Y-1.761
X8.0Y-1.861
X8.1Y-1.761
X8.1Y-1.861
X8.2Y-1.761
X8.2Y-1.861
X8.3Y-1.761
X8.3Y-1.861
X8.4Y-1.761
X8.4Y-1.861
X8.5Y-1.761
X8.5Y-1.861
X8.6Y-1.761
X8.6Y-1.861
X8.7Y-1.761
X8.7Y-1.861
X8.8Y-1.761
X8.8Y-1.861
X8.9Y-1.761
X8.9Y-1.861
X9.0Y-1.761
X9.0Y-1.861
X9.1Y-1.761
X9.1Y-1.861
X9.325Y-2.3
X9.325Y-2.4
X8.1Y-3.05
X8.1Y-3.15
T8
X7.4Y-3.75
X7.8Y-3.75
T9
X7.0079Y-1.811
X9.2913Y-1.811
X7.0079Y-2.7165
X9.2913Y-2.7165
X7.0079Y-3.7402
X9.2913Y-3.7402
T10
X6.747Y-4.0594
X9.6939Y-4.0594
T0
M30
